<?xml version="1.0" encoding="UTF-8"?>
<svg id="Layer_1" data-name="Layer 1" xmlns="http://www.w3.org/2000/svg" viewBox="0 0 170 340.72">
  <defs>
    <style>
      .cls-1 {
        fill: none;
        stroke: #191919;
        stroke-miterlimit: 10;
        stroke-width: 2px;
      }

      .cls-2 {
        fill: #191919;
      }

      .cls-2, .cls-3, .cls-4, .cls-5, .cls-6, .cls-7 {
        stroke-width: 0px;
      }

      .cls-3 {
        fill: #ff8b98;
      }

      .cls-4 {
        fill: #fff;
      }

      .cls-5 {
        fill: #fcbc90;
      }

      .cls-6 {
        fill: #ffd6b8;
      }

      .cls-7 {
        fill: #ff571c;
      }
    </style>
  </defs>
  <g id="_05" data-name="05">
    <path class="cls-2" d="m91.87,60.14h-12.85c-36.68,0-66.42,29.74-66.42,66.42v175.91c0,12.29,9.96,22.25,22.25,22.25h101.19c12.29,0,22.25-9.96,22.25-22.25V126.56c0-36.68-29.74-66.42-66.42-66.42Z"/>
    <path class="cls-7" d="m85,199.72C38.06,199.72,0,237.77,0,284.72v17.53c0,21.24,17.22,38.47,38.47,38.47h93.07c21.24,0,38.47-17.22,38.47-38.47v-17.53c0-46.94-38.06-85-85-85Z"/>
    <circle class="cls-6" cx="85.41" cy="129.28" r="62.68" transform="translate(-27.42 23.08) rotate(-13.28)"/>
    <path class="cls-4" d="m68.75,151.01c0,9.2,7.46,16.65,16.65,16.65s16.65-7.46,16.65-16.65h-33.31Z"/>
    <path class="cls-6" d="m84.5,179.24c-5.77,0-10.45,4.68-10.45,10.45v20.44c0,5.77,4.68,10.45,10.45,10.45s10.45-4.68,10.45-10.45v-20.44c0-5.77-4.68-10.45-10.45-10.45Z"/>
    <path class="cls-6" d="m145.85,121.11v20.63c5.7,0,10.32-4.62,10.32-10.32s-4.62-10.31-10.32-10.31Z"/>
    <path class="cls-6" d="m13.83,131.42c0,5.7,4.62,10.32,10.31,10.32v-20.63c-5.7,0-10.31,4.62-10.31,10.31Z"/>
    <path class="cls-5" d="m85.7,132.3c-4.1,0-7.42,3.32-7.42,7.42h14.84c0-4.1-3.32-7.42-7.42-7.42Z"/>
    <circle class="cls-2" cx="116.62" cy="125.22" r="3.5"/>
    <circle class="cls-2" cx="53.62" cy="125.22" r="3.5"/>
    <path class="cls-2" d="m109.22,67.72c-29.08-8.96-58.17-5.56-64.96,7.6-6.8,13.16,11.27,31.09,40.36,40.05s58.17,5.56,64.97-7.6c6.79-13.16-11.27-31.09-40.36-40.05Z"/>
    <path class="cls-1" d="m79.07,124.04c0,.48,0,.96-.01,1.44-.51,14.56-12.35,26.33-27.08,26.57-15.22.25-27.75-11.88-28.01-27.1-.25-15.22,11.88-27.75,27.1-28.01,15.22-.25,27.75,11.88,28.01,27.1Z"/>
    <path class="cls-1" d="m147.17,124.49c0,15.22-12.34,27.55-27.55,27.55s-27.55-12.34-27.55-27.55,12.34-27.55,27.55-27.55,27.55,12.34,27.55,27.55Z"/>
    <rect class="cls-2" x="79.28" y="123" width="13" height="2"/>
    <path class="cls-3" d="m84.78,4.68s-17.82,48.83-22.39,60.97c8.59,9.39,41.12,7.78,49.47-2.84-4.93-10.64-27.08-58.13-27.08-58.13Z"/>
    <path class="cls-7" d="m84.78,0c-2.58,0-4.68,2.09-4.68,4.68s2.1,4.68,4.68,4.68,4.68-2.09,4.68-4.68-2.1-4.68-4.68-4.68Z"/>
  </g>
</svg>