<?xml version="1.0" encoding="UTF-8"?>
<svg id="Layer_1" data-name="Layer 1" xmlns="http://www.w3.org/2000/svg" xmlns:xlink="http://www.w3.org/1999/xlink" viewBox="0 0 581.13 458.24">
  <defs>
    <style>
      .cls-1 {
        mask: url(#mask-15);
      }

      .cls-2 {
        mask: url(#mask-17);
      }

      .cls-3 {
        mask: url(#mask-18);
      }

      .cls-4 {
        mask: url(#mask-14);
      }

      .cls-5 {
        mask: url(#mask-13);
      }

      .cls-6 {
        mask: url(#mask-12);
      }

      .cls-7 {
        mask: url(#mask-11);
      }

      .cls-8 {
        mask: url(#mask-16);
      }

      .cls-9 {
        mask: url(#mask-10);
      }

      .cls-10 {
        mask: url(#mask);
      }

      .cls-11 {
        fill: url(#linear-gradient);
      }

      .cls-11, .cls-12, .cls-13, .cls-14, .cls-15, .cls-16, .cls-17, .cls-18, .cls-19, .cls-20, .cls-21, .cls-22, .cls-23, .cls-24, .cls-25, .cls-26, .cls-27, .cls-28, .cls-29, .cls-30, .cls-31, .cls-32, .cls-33, .cls-34, .cls-35, .cls-36, .cls-37, .cls-38, .cls-39, .cls-40, .cls-41, .cls-42, .cls-43, .cls-44, .cls-45, .cls-46, .cls-47, .cls-48, .cls-49, .cls-50, .cls-51, .cls-52, .cls-53, .cls-54, .cls-55, .cls-56, .cls-57, .cls-58, .cls-59, .cls-60, .cls-61, .cls-62, .cls-63, .cls-64, .cls-65, .cls-66, .cls-67 {
        stroke-width: 0px;
      }

      .cls-12 {
        fill: url(#linear-gradient-11);
      }

      .cls-13 {
        fill: url(#linear-gradient-12);
      }

      .cls-14 {
        fill: url(#linear-gradient-13);
      }

      .cls-15 {
        fill: url(#linear-gradient-10);
      }

      .cls-16 {
        fill: url(#linear-gradient-17);
      }

      .cls-17 {
        fill: url(#linear-gradient-16);
      }

      .cls-18 {
        fill: url(#linear-gradient-19);
      }

      .cls-19 {
        fill: url(#linear-gradient-15);
      }

      .cls-20 {
        fill: url(#linear-gradient-18);
      }

      .cls-21 {
        fill: url(#linear-gradient-14);
      }

      .cls-22 {
        fill: #020613;
      }

      .cls-22, .cls-23, .cls-24, .cls-25, .cls-26, .cls-27, .cls-28, .cls-29, .cls-30, .cls-31, .cls-32, .cls-33, .cls-34, .cls-35, .cls-36, .cls-37, .cls-38, .cls-39, .cls-40, .cls-41, .cls-42, .cls-43, .cls-44, .cls-45, .cls-46, .cls-47, .cls-48, .cls-49, .cls-50, .cls-51, .cls-67 {
        fill-rule: evenodd;
      }

      .cls-23 {
        fill: #151b30;
      }

      .cls-24 {
        fill: #0e194e;
      }

      .cls-25 {
        fill: #401700;
      }

      .cls-26 {
        fill: #232f66;
      }

      .cls-27 {
        fill: #828fc3;
      }

      .cls-28 {
        fill: #7b679e;
      }

      .cls-29 {
        fill: #505e9e;
      }

      .cls-30 {
        fill: #824000;
      }

      .cls-31 {
        fill: #5e5e5e;
      }

      .cls-32 {
        fill: #464f66;
      }

      .cls-33 {
        fill: #beafd6;
      }

      .cls-34 {
        fill: #ce2e0a;
      }

      .cls-35 {
        fill: #c9c9c9;
      }

      .cls-36 {
        fill: #d68b22;
      }

      .cls-37 {
        fill: #d8cbec;
      }

      .cls-38 {
        fill: #c91900;
      }

      .cls-39 {
        fill: #ffb963;
      }

      .cls-40 {
        fill: #ffaa50;
      }

      .cls-41 {
        fill: #eb6310;
      }

      .cls-42, .cls-65 {
        fill: #e65c10;
      }

      .cls-43, .cls-64 {
        fill: #fff;
      }

      .cls-44 {
        fill: #e9defb;
      }

      .cls-45 {
        fill: #ffeaa8;
      }

      .cls-46 {
        fill: #e4e4e4;
      }

      .cls-47 {
        fill: #6c7ab4;
      }

      .cls-48 {
        fill: #745e98;
      }

      .cls-49 {
        fill: #9787b4;
      }

      .cls-50 {
        fill: #f07b27;
      }

      .cls-51 {
        fill: #f9f5ff;
      }

      .cls-52 {
        fill: url(#linear-gradient-4);
      }

      .cls-53 {
        fill: url(#linear-gradient-2);
      }

      .cls-54 {
        fill: url(#linear-gradient-3);
      }

      .cls-55 {
        fill: url(#linear-gradient-8);
      }

      .cls-56 {
        fill: url(#linear-gradient-9);
      }

      .cls-57 {
        fill: url(#linear-gradient-7);
      }

      .cls-58 {
        fill: url(#linear-gradient-5);
      }

      .cls-59 {
        fill: url(#linear-gradient-6);
      }

      .cls-68 {
        mask: url(#mask-3);
      }

      .cls-69 {
        mask: url(#mask-2);
      }

      .cls-70 {
        mask: url(#mask-5);
      }

      .cls-71 {
        mask: url(#mask-4);
      }

      .cls-72 {
        mask: url(#mask-1);
      }

      .cls-73 {
        mask: url(#mask-7);
      }

      .cls-74 {
        mask: url(#mask-6);
      }

      .cls-75 {
        mask: url(#mask-8);
      }

      .cls-76 {
        mask: url(#mask-9);
      }

      .cls-61 {
        fill: #592300;
      }

      .cls-62 {
        fill: #d1c3e6;
      }

      .cls-63 {
        fill: #bd0000;
      }

      .cls-66 {
        fill: #eee5ff;
      }
    </style>
    <linearGradient id="linear-gradient" x1="-178.14" y1="307.14" x2="97.37" y2="532.27" gradientTransform="translate(305.73 -221.64)" gradientUnits="userSpaceOnUse">
      <stop offset="0" stop-color="#000"/>
      <stop offset="1" stop-color="#fff"/>
    </linearGradient>
    <mask id="mask" x="0" y="0" width="581.13" height="437.35" maskUnits="userSpaceOnUse">
      <rect class="cls-11" x="0" y="0" width="581.13" height="437.35"/>
    </mask>
    <linearGradient id="linear-gradient-2" x1="-253.15" y1="667.95" x2="-296.63" y2="547.81" gradientTransform="translate(614.91 -200.9)" xlink:href="#linear-gradient"/>
    <mask id="mask-1" x="309.17" y="338.54" width="55.41" height="119.55" maskUnits="userSpaceOnUse">
      <rect class="cls-53" x="309.17" y="338.54" width="55.41" height="119.55"/>
    </mask>
    <linearGradient id="linear-gradient-3" x1="-293.44" y1="631.14" x2="-165.22" y2="573.65" gradientTransform="translate(631.93 -213.91)" xlink:href="#linear-gradient"/>
    <mask id="mask-2" x="326.2" y="334.56" width="146.86" height="110.52" maskUnits="userSpaceOnUse">
      <rect class="cls-54" x="326.2" y="334.56" width="146.86" height="110.52"/>
    </mask>
    <linearGradient id="linear-gradient-4" x1="-346.21" y1="578.09" x2="-110.87" y2="525.33" gradientTransform="translate(655.05 -312.8)" xlink:href="#linear-gradient"/>
    <mask id="mask-3" x="349.32" y="136.14" width="134.25" height="210.04" maskUnits="userSpaceOnUse">
      <rect class="cls-52" x="349.32" y="136.14" width="134.25" height="210.04"/>
    </mask>
    <linearGradient id="linear-gradient-5" x1="-300.54" y1="681.83" x2="-192.74" y2="567.3" gradientTransform="translate(657.85 -480.48)" xlink:href="#linear-gradient"/>
    <mask id="mask-4" x="352.12" y="137.5" width="91.99" height="41.01" maskUnits="userSpaceOnUse">
      <rect class="cls-58" x="352.12" y="137.5" width="91.99" height="41.01"/>
    </mask>
    <linearGradient id="linear-gradient-6" x1="-307.14" y1="710.59" x2="-168.48" y2="590.24" gradientTransform="translate(618.76 -326.5)" xlink:href="#linear-gradient"/>
    <mask id="mask-5" x="313.03" y="295.07" width="159.2" height="37.42" maskUnits="userSpaceOnUse">
      <rect class="cls-59" x="313.03" y="295.07" width="159.2" height="37.42"/>
    </mask>
    <linearGradient id="linear-gradient-7" x1="-305.17" y1="646.65" x2="-254.22" y2="624.55" gradientTransform="translate(670.69 -512.49)" xlink:href="#linear-gradient"/>
    <mask id="mask-6" x="364.95" y="101.49" width="47.97" height="45.01" maskUnits="userSpaceOnUse">
      <rect class="cls-57" x="364.95" y="101.49" width="47.97" height="45.01"/>
    </mask>
    <linearGradient id="linear-gradient-8" x1="-305.73" y1="642" x2="-271.68" y2="641.47" gradientTransform="translate(675.44 -515.14)" xlink:href="#linear-gradient"/>
    <mask id="mask-7" x="369.71" y="109.31" width="35.84" height="34.53" maskUnits="userSpaceOnUse">
      <rect class="cls-55" x="369.71" y="109.31" width="35.84" height="34.53"/>
    </mask>
    <linearGradient id="linear-gradient-9" x1="-268.06" y1="627.36" x2="-313.91" y2="609.65" gradientTransform="translate(655.57 -527.17)" xlink:href="#linear-gradient"/>
    <mask id="mask-8" x="349.84" y="48.57" width="23.6" height="83.24" maskUnits="userSpaceOnUse">
      <rect class="cls-56" x="349.84" y="48.58" width="23.6" height="83.24"/>
    </mask>
    <linearGradient id="linear-gradient-10" x1="-294.12" y1="630.48" x2="-261.21" y2="609.83" gradientTransform="translate(666.08 -533.04)" xlink:href="#linear-gradient"/>
    <mask id="mask-9" x="360.35" y="48.54" width="55.72" height="77.4" maskUnits="userSpaceOnUse">
      <rect class="cls-15" x="360.35" y="48.54" width="55.72" height="77.4"/>
    </mask>
    <linearGradient id="linear-gradient-11" x1="-308.06" y1="652.65" x2="-271.55" y2="640.34" gradientTransform="translate(679.29 -549.58)" xlink:href="#linear-gradient"/>
    <mask id="mask-10" x="373.56" y="82.2" width="38.43" height="27.2" maskUnits="userSpaceOnUse">
      <rect class="cls-12" x="373.56" y="82.2" width="38.43" height="27.2"/>
    </mask>
    <linearGradient id="linear-gradient-12" x1="-269.73" y1="635.07" x2="-302.7" y2="650.46" gradientTransform="translate(653.81 -599.25)" xlink:href="#linear-gradient"/>
    <mask id="mask-11" x="348.08" y="29.3" width="34.76" height="30.44" maskUnits="userSpaceOnUse">
      <rect class="cls-13" x="348.08" y="29.3" width="34.76" height="30.44"/>
    </mask>
    <linearGradient id="linear-gradient-13" x1="-298.63" y1="592.62" x2="-283.87" y2="642.63" gradientTransform="translate(700.43 -561.78)" xlink:href="#linear-gradient"/>
    <mask id="mask-12" x="394.69" y="35.97" width="35.3" height="61.24" maskUnits="userSpaceOnUse">
      <rect class="cls-14" x="394.69" y="35.97" width="35.3" height="61.24"/>
    </mask>
    <linearGradient id="linear-gradient-14" x1="-271.59" y1="655.07" x2="-321.3" y2="624.41" gradientTransform="translate(655.5 -525.17)" xlink:href="#linear-gradient"/>
    <mask id="mask-13" x="349.77" y="97.51" width="22.12" height="36.32" maskUnits="userSpaceOnUse">
      <rect class="cls-21" x="349.77" y="97.51" width="22.12" height="36.32"/>
    </mask>
    <linearGradient id="linear-gradient-15" x1="-318.6" y1="691.37" x2="-255.45" y2="605.82" gradientTransform="translate(683.66 -337.6)" xlink:href="#linear-gradient"/>
    <mask id="mask-14" x="377.92" y="303.51" width="35.26" height="17.88" maskUnits="userSpaceOnUse">
      <rect class="cls-19" x="377.92" y="303.51" width="35.26" height="17.88"/>
    </mask>
    <linearGradient id="linear-gradient-16" x1="-311.41" y1="674.2" x2="-265.49" y2="610.52" gradientTransform="translate(578.99 -362.32)" xlink:href="#linear-gradient"/>
    <mask id="mask-15" x="273.26" y="264.84" width="33.53" height="31.83" maskUnits="userSpaceOnUse">
      <rect class="cls-17" x="273.26" y="264.84" width="33.53" height="31.83"/>
    </mask>
    <linearGradient id="linear-gradient-17" x1="-335.35" y1="674.72" x2="-219.47" y2="577.5" gradientTransform="translate(777.6 -365)" xlink:href="#linear-gradient"/>
    <mask id="mask-16" x="471.87" y="247.55" width="33.63" height="46.44" maskUnits="userSpaceOnUse">
      <rect class="cls-16" x="471.87" y="247.55" width="33.63" height="46.44"/>
    </mask>
    <linearGradient id="linear-gradient-18" x1="-305.73" y1="653.92" x2="-276.61" y2="653.92" gradientTransform="translate(583.4 -376.94)" xlink:href="#linear-gradient"/>
    <mask id="mask-17" x="277.67" y="271.91" width="29.12" height="10.13" maskUnits="userSpaceOnUse">
      <rect class="cls-20" x="277.67" y="271.91" width="29.12" height="10.13"/>
    </mask>
    <linearGradient id="linear-gradient-19" x1="-305.73" y1="648.74" x2="-274.49" y2="648.74" gradientTransform="translate(777.6 -384.22)" xlink:href="#linear-gradient"/>
    <mask id="mask-18" x="471.87" y="254.27" width="31.24" height="20.5" maskUnits="userSpaceOnUse">
      <rect class="cls-18" x="471.87" y="254.27" width="31.24" height="20.5"/>
    </mask>
  </defs>
  <path class="cls-51" d="m47.78,359.62C19.57,332.81,1.5,295.59.09,253.93c-1.37-40.43,13.24-78.97,40.3-108.52,15.74-17.16,35.13-30.63,56.71-39.37h0s1.76-.71,1.76-.71c9.07-3.63,18.19-7.1,27.28-10.67,4.7-1.85,9.38-3.73,14.03-5.7h0c2.06-.87,4.11-1.75,6.15-2.66,1.53-.68,3.05-1.37,4.57-2.07,2.03-.94,4.04-1.9,6.05-2.88h0c2.01-.99,4.01-2,5.99-3.05h0c4.51-2.38,8.95-4.9,13.28-7.61h0c3.45-2.15,6.83-4.43,10.13-6.8.48-.35.96-.69,1.43-1.04h0c.96-.71,1.91-1.42,2.85-2.15.47-.37.95-.73,1.42-1.11h0c.47-.37.95-.75,1.42-1.13h0c.47-.38.94-.76,1.42-1.15h0s0,0,0,0C230.83,26.05,275.32,6.66,322.63,1.44,330.63.55,338.66.08,346.7,0c.64,0,1.28,0,1.93,0,1.3,0,2.6,0,3.89.01.78.01,1.55.04,2.33.06,1.16.03,2.33.05,3.49.1.81.03,1.61.08,2.42.12,1.11.06,2.23.11,3.34.18.84.05,1.67.12,2.5.18,1.08.08,2.15.16,3.23.25.85.08,1.7.16,2.55.25,1.04.1,2.09.21,3.13.32.87.1,1.73.21,2.6.31,14.89,1.85,29.6,5.11,43.86,9.77.94.31,1.88.63,2.82.95.81.28,1.62.55,2.43.84.93.33,1.86.67,2.79,1.01.8.3,1.61.59,2.41.89.93.35,1.86.72,2.78,1.09.78.31,1.57.61,2.34.93.95.39,1.89.79,2.83,1.19.75.32,1.5.62,2.24.95,1,.44,2,.89,3,1.34.67.3,1.34.6,2.01.9,2.19,1.01,4.36,2.07,6.51,3.15,1.09.55,2.17,1.09,3.25,1.65.72.38,1.43.77,2.15,1.15.89.48,1.78.95,2.66,1.43.76.42,1.5.85,2.25,1.27.83.47,1.66.93,2.48,1.41.77.45,1.52.91,2.29,1.36.8.48,1.59.95,2.38,1.43.78.48,1.54.96,2.31,1.45.76.48,1.52.96,2.28,1.44.77.5,1.54,1.01,2.3,1.52,12.76,8.47,24.64,18.15,35.49,28.95.68.68,1.37,1.36,2.05,2.05.58.59,1.14,1.18,1.71,1.78.68.71,1.36,1.42,2.03,2.13.54.58,1.07,1.16,1.61,1.75.68.74,1.36,1.49,2.04,2.24.52.58,1.03,1.18,1.55,1.77.67.76,1.34,1.53,2,2.3.48.57.96,1.15,1.43,1.72.68.81,1.36,1.62,2.03,2.45.38.47.75.95,1.13,1.42,2.79,3.49,5.48,7.07,8.07,10.72.14.2.29.4.43.6.69.98,1.36,1.97,2.03,2.96.34.5.68.99,1.02,1.49.63.94,1.23,1.88,1.84,2.83.37.57.74,1.13,1.1,1.7.58.92,1.15,1.85,1.72,2.77.38.61.76,1.22,1.13,1.84.55.92,1.09,1.85,1.63,2.78.37.63.73,1.25,1.09,1.88.53.93,1.04,1.86,1.56,2.8,7.91,14.36,14.24,29.57,18.85,45.3.2.69.4,1.39.59,2.09.3,1.08.61,2.15.9,3.24.18.68.35,1.37.53,2.06.28,1.11.57,2.22.84,3.33.16.65.3,1.3.45,1.95.27,1.16.53,2.31.78,3.48.12.58.24,1.17.36,1.75.26,1.25.51,2.49.75,3.75.06.34.12.68.18,1.02,1.99,10.85,3.22,21.98,3.6,33.33,1.24,36.55-6.3,71.38-20.73,102.54-13.32,6.31-22.21,18.81-24.33,32.79l-.1.18c-.88,1.07-1.71,2.19-2.48,3.35l-4.19,4.19c-2.45,1.84-4.71,3.53-6.9,5.72l-.47.47c-.47.32-.94.65-1.41.98-2.85,1.24-5.62,2.81-8.23,4.71-3.06,1.33-6.01,3.03-8.8,5.12l-1.58,1.18c.37-.19,1.15-.58,1.15-.58l-4.71,2.36-3.94,1.97c-2.42,1.15-4.75,2.53-6.96,4.15-1.43.63-2.83,1.31-4.19,2.09l-4.51,2.58.55-.18c-1.95.65-3.86,1.44-5.7,2.36-4.68,2.34-9.51,4.49-13.72,7.64l-1.92,1.44c-2.28.7-4.54,1.6-6.75,2.7-4.71,2.36-9.43,4.71-14.14,7.07-1.92.96-3.79,2.09-5.63,3.22l-6.26,1.14c-2.02.37-4.02.88-5.97,1.53-6.69,2.23-13.38,4.46-20.06,6.69l-11.44,3.05c-1.04.1-2.08.23-3.13.41l-7.07,1.18-7.07,1.18c-3.6.6-7.16,1.76-10.68,2.76l-7.39.18c-3.85-1.66-8.01-2.78-12.4-3.27l-10.61-1.18c-1.25-.14-2.49-.21-3.73-.24l-11.6-3.09-10.51-3.15c-2.73-.91-5.3-1.79-8.14-2.36l-5.2-1.04c-1.82-.39-3.69-.67-5.59-.83-2.29-.58-4.65-.98-7.07-1.18-2.29-.58-4.65-.98-7.07-1.18-2.29-.58-4.65-.98-7.07-1.18-3.42-.87-7.01-1.33-10.7-1.33h-2.35c-4.44-1.53-9.2-2.36-14.15-2.36h-2.69l6.12,3.06c-2.58-1.23-5.32-2.22-8.19-2.94l-3.92-.98c-.38-.1-.77-.2-1.16-.3-5.46-2.36-11.31-3.56-17.26-3.56l-4.51-1.5c-1.69-.82-3.46-1.55-5.29-2.16l-2.67-.89c-7.8-7.4-18.34-11.95-29.94-11.95h-20.37l6.07,3.03c-4.28-2.04-8.94-3.4-13.84-3.94-3.04-1.37-6.26-2.39-9.62-3.03-4.34-2.42-9.14-4.12-14.23-4.94-3.75-2.58-7.93-4.58-12.41-5.89-2.94-1.81-6.12-3.29-9.47-4.37-2.15-1.52-4.45-2.86-6.87-3.98-3.78-2.03-7.9-3.53-12.24-4.37-.63-.31-1.27-.6-1.92-.87-7.25-4.19-15.47-6.16-23.83-5.77"/>
  <g class="cls-10">
    <path class="cls-44" d="m47.78,359.62C19.57,332.81,1.5,295.59.09,253.93c-1.37-40.43,13.24-78.97,40.3-108.52,15.74-17.16,35.13-30.63,56.71-39.37h0s1.76-.71,1.76-.71c9.07-3.63,18.19-7.1,27.28-10.67,4.7-1.85,9.38-3.73,14.03-5.7h0c2.06-.87,4.11-1.75,6.15-2.66,1.53-.68,3.05-1.37,4.57-2.07,2.03-.94,4.04-1.9,6.05-2.88h0c2.01-.99,4.01-2,5.99-3.05h0c4.51-2.38,8.95-4.9,13.28-7.61h0c3.45-2.15,6.83-4.43,10.13-6.8.48-.35.96-.69,1.43-1.04h0c.96-.71,1.91-1.42,2.85-2.15.47-.37.95-.73,1.42-1.11h0c.47-.37.95-.75,1.42-1.13h0c.47-.38.94-.76,1.42-1.15h0s0,0,0,0C230.83,26.05,275.32,6.66,322.63,1.44,330.63.55,338.66.08,346.7,0c.64,0,1.28,0,1.93,0,1.3,0,2.6,0,3.89.01.78.01,1.55.04,2.33.06,1.16.03,2.33.05,3.49.1.81.03,1.61.08,2.42.12,1.11.06,2.23.11,3.34.18.84.05,1.67.12,2.5.18,1.08.08,2.15.16,3.23.25.85.08,1.7.16,2.55.25,1.04.1,2.09.21,3.13.32.87.1,1.73.21,2.6.31,14.89,1.85,29.6,5.11,43.86,9.77.94.31,1.88.63,2.82.95.81.28,1.62.55,2.43.84.93.33,1.86.67,2.79,1.01.8.3,1.61.59,2.41.89.93.35,1.86.72,2.78,1.09.78.31,1.57.61,2.34.93.95.39,1.89.79,2.83,1.19.75.32,1.5.62,2.24.95,1,.44,2,.89,3,1.34.67.3,1.34.6,2.01.9,2.19,1.01,4.36,2.07,6.51,3.15,1.09.55,2.17,1.09,3.25,1.65.72.38,1.43.77,2.15,1.15.89.48,1.78.95,2.66,1.43.76.42,1.5.85,2.25,1.27.83.47,1.66.93,2.48,1.41.77.45,1.52.91,2.29,1.36.8.48,1.59.95,2.38,1.43.78.48,1.54.96,2.31,1.45.76.48,1.52.96,2.28,1.44.77.5,1.54,1.01,2.3,1.52,12.76,8.47,24.64,18.15,35.49,28.95.68.68,1.37,1.36,2.05,2.05.58.59,1.14,1.18,1.71,1.78.68.71,1.36,1.42,2.03,2.13.54.58,1.07,1.16,1.61,1.75.68.74,1.36,1.49,2.04,2.24.52.58,1.03,1.18,1.55,1.77.67.76,1.34,1.53,2,2.3.48.57.96,1.15,1.43,1.72.68.81,1.36,1.62,2.03,2.45.38.47.75.95,1.13,1.42,2.79,3.49,5.48,7.07,8.07,10.72.14.2.29.4.43.6.69.98,1.36,1.97,2.03,2.96.34.5.68.99,1.02,1.49.63.94,1.23,1.88,1.84,2.83.37.57.74,1.13,1.1,1.7.58.92,1.15,1.85,1.72,2.77.38.61.76,1.22,1.13,1.84.55.92,1.09,1.85,1.63,2.78.37.63.73,1.25,1.09,1.88.53.93,1.04,1.86,1.56,2.8,7.91,14.36,14.24,29.57,18.85,45.3.2.69.4,1.39.59,2.09.3,1.08.61,2.15.9,3.24.18.68.35,1.37.53,2.06.28,1.11.57,2.22.84,3.33.16.65.3,1.3.45,1.95.27,1.16.53,2.31.78,3.48.12.58.24,1.17.36,1.75.26,1.25.51,2.49.75,3.75.06.34.12.68.18,1.02,1.99,10.85,3.22,21.98,3.6,33.33,1.24,36.55-6.3,71.38-20.73,102.54-13.32,6.31-22.21,18.81-24.33,32.79l-.1.18c-.88,1.07-1.71,2.19-2.48,3.35l-4.19,4.19c-2.45,1.84-4.71,3.53-6.9,5.72l-.47.47c-.47.32-.94.65-1.41.98-2.85,1.24-5.62,2.81-8.23,4.71-3.06,1.33-6.01,3.03-8.8,5.12l-1.58,1.18c.37-.19,1.15-.58,1.15-.58l-4.71,2.36-3.94,1.97c-2.42,1.15-4.75,2.53-6.96,4.15-1.43.63-2.83,1.31-4.19,2.09l-4.51,2.58.55-.18c-1.95.65-3.86,1.44-5.7,2.36-4.68,2.34-9.51,4.49-13.72,7.64l-1.92,1.44c-2.28.7-4.54,1.6-6.75,2.7-4.71,2.36-9.43,4.71-14.14,7.07-1.92.96-3.79,2.09-5.63,3.22l-6.26,1.14c-2.02.37-4.02.88-5.97,1.53-6.69,2.23-13.38,4.46-20.06,6.69l-11.44,3.05c-1.04.1-2.08.23-3.13.41l-7.07,1.18-7.07,1.18c-3.6.6-7.16,1.76-10.68,2.76l-7.39.18c-3.85-1.66-8.01-2.78-12.4-3.27l-10.61-1.18c-1.25-.14-2.49-.21-3.73-.24l-11.6-3.09-10.51-3.15c-2.73-.91-5.3-1.79-8.14-2.36l-5.2-1.04c-1.82-.39-3.69-.67-5.59-.83-2.29-.58-4.65-.98-7.07-1.18-2.29-.58-4.65-.98-7.07-1.18-2.29-.58-4.65-.98-7.07-1.18-3.42-.87-7.01-1.33-10.7-1.33h-2.35c-4.44-1.53-9.2-2.36-14.15-2.36h-2.69l6.12,3.06c-2.58-1.23-5.32-2.22-8.19-2.94l-3.92-.98c-.38-.1-.77-.2-1.16-.3-5.46-2.36-11.31-3.56-17.26-3.56l-4.51-1.5c-1.69-.82-3.46-1.55-5.29-2.16l-2.67-.89c-7.8-7.4-18.34-11.95-29.94-11.95h-20.37l6.07,3.03c-4.28-2.04-8.94-3.4-13.84-3.94-3.04-1.37-6.26-2.39-9.62-3.03-4.34-2.42-9.14-4.12-14.23-4.94-3.75-2.58-7.93-4.58-12.41-5.89-2.94-1.81-6.12-3.29-9.47-4.37-2.15-1.52-4.45-2.86-6.87-3.98-3.78-2.03-7.9-3.53-12.24-4.37-.63-.31-1.27-.6-1.92-.87-7.25-4.19-15.47-6.16-23.83-5.77"/>
  </g>
  <rect class="cls-62" x="461.74" y="201.03" width="79.29" height="146.95"/>
  <rect class="cls-66" x="475.13" y="215.5" width="7.75" height="8.24"/>
  <rect class="cls-66" x="491.01" y="215.5" width="7.75" height="8.24"/>
  <rect class="cls-66" x="506.5" y="215.5" width="7.75" height="8.24"/>
  <rect class="cls-66" x="521.83" y="215.5" width="7.75" height="8.24"/>
  <rect class="cls-66" x="475.13" y="231.91" width="7.75" height="8.24"/>
  <rect class="cls-66" x="491.01" y="231.91" width="7.75" height="8.24"/>
  <rect class="cls-66" x="506.5" y="231.91" width="7.75" height="8.24"/>
  <rect class="cls-66" x="521.83" y="231.91" width="7.75" height="8.24"/>
  <rect class="cls-66" x="475.13" y="266.56" width="7.75" height="8.24"/>
  <rect class="cls-66" x="491.01" y="266.56" width="7.75" height="8.24"/>
  <rect class="cls-66" x="506.5" y="266.56" width="7.75" height="8.24"/>
  <rect class="cls-66" x="521.83" y="266.56" width="7.75" height="8.24"/>
  <rect class="cls-66" x="475.13" y="282.97" width="7.75" height="8.24"/>
  <rect class="cls-66" x="491.01" y="282.97" width="7.75" height="8.24"/>
  <rect class="cls-66" x="506.5" y="282.97" width="7.75" height="8.24"/>
  <rect class="cls-66" x="521.83" y="282.97" width="7.75" height="8.24"/>
  <polygon class="cls-37" points="84.34 256.66 102.44 256.66 102.44 209.6 116.75 209.6 116.75 145.64 130.36 145.64 130.36 209.6 144.67 209.6 144.67 256.66 162.77 256.66 162.77 384.56 84.34 384.56 84.34 256.66"/>
  <rect class="cls-62" x="173.85" y="218.69" width="92.67" height="171.75"/>
  <rect class="cls-62" x="173.85" y="180.15" width="92.67" height="21.2"/>
  <path class="cls-33" d="m145.44,402.46c37.69,2.52,69.79,12.58,96.31,30.17,27.39,13.95,57.26,22.36,87.91,24.74,103.22,8.65,199.74-51.9,236.89-148.58-5.01-1.06-10.24.15-14.27,3.33-4.03,3.17-6.43,7.97-6.57,13.1-5.67-5.97-14.39-7.91-22.05-4.91-7.67,3-12.75,10.34-12.87,18.57-5.39-11.72-17.5-18.85-30.37-17.87-12.86.98-23.76,9.86-27.31,22.25-79.27,13.82-118.91,20.74-118.91,20.74-8.17-14.82-24.12-23.64-41.02-22.67-16.9.97-31.74,11.54-38.17,27.2-4.83-7.91-13.53-12.61-22.79-12.33-9.26.28-17.66,5.51-22,13.69-10.43-10.45-25.37-15.05-39.88-12.27-14.51,2.78-26.69,12.57-32.52,26.14-.66-23.21-15.75-43.54-37.78-50.89-22.03-7.35-46.3-.15-60.77,18.02,27.33,30.35,65.41,48.85,106.17,51.58"/>
  <path class="cls-49" d="m263.7,442.42c91.03,35.23,194.37,10.4,259.46-62.34-3.9-5.31-10.12-8.43-16.71-8.39-6.59.04-12.77,3.23-16.61,8.58-3.6-8-10.65-13.92-19.15-16.07-8.5-2.16-17.52-.31-24.5,5-72.09,27.18-108.14,40.77-108.14,40.77-6.31-10.97-18.31-17.39-30.93-16.55-12.62.83-23.67,8.78-28.48,20.48-7-6.08-16.78-7.79-25.43-4.46-8.65,3.33-14.75,11.17-15.86,20.37,9.94,5.7,18.73,9.91,26.36,12.62"/>
  <path class="cls-23" d="m469.64,424.52c-.28.17-.55.33-.83.5m-58.89,24.94c-16.56-62.17-13.63-60.48-29.89,6-23.54,3.16-47.43,2.78-70.86-1.11,0,0,2.18-38.77,6.53-116.32l143.35,6.67,11.22-16.06c5.8,59.64,8.7,89.45,8.7,89.45-3.05,2.04-6.14,4.01-9.28,5.9h0s-.04.03-.04.03c-.28.17-.55.33-.83.5h-.01c-.29.18-.57.35-.86.52h0c-.26.16-.52.31-.78.46l-.1.06h-.02c-.28.17-.55.33-.83.49l-.03.02-.04.02c-.27.16-.55.32-.82.47h-.02s-.03.03-.03.03c-.26.15-.52.3-.78.44l-.14.08-.27.15h0c-17.04,9.64-35.23,17.09-54.15,22.19Z"/>
  <g class="cls-72">
    <path class="cls-32" d="m315.7,338.54c4.46,2.61,6.68,3.92,6.68,3.92-15.9,54.11,41.44,51.58,42.19,87.59.23,11.15-5.14,21.67-14.3,28.03-13.77.13-27.52-.95-41.11-3.22,0,0,1.76-31.45,5.29-94.35.82-14.65,1.23-21.97,1.23-21.97"/>
  </g>
  <g class="cls-69">
    <path class="cls-22" d="m473.05,422.43c-14.86,9.31-30.71,16.9-47.27,22.65,15.66-5.68,25.01-21.76,22.21-38.18-9.42-55.2-114.51-7.72-121.79-72.34,92.64,7.4,138.96,11.1,138.96,11.1,5.26,51.18,7.9,76.77,7.9,76.77"/>
  </g>
  <path class="cls-47" d="m263.99,262.7c34.17,3.39,51.26,5.09,51.26,5.09,0,0,1.29-39.21,3.88-117.63-34.73,15.53-38.08,41.86-44.82,69.8-6.88,28.49-10.31,42.74-10.31,42.74"/>
  <path class="cls-47" d="m519.57,262.7c-27.87,4.29-41.8,6.43-41.8,6.43,0,0-1.05-39.18-3.16-117.53,28.33,14.62,31.05,40.86,36.55,68.63,5.61,28.31,8.41,42.47,8.41,42.47"/>
  <path class="cls-29" d="m475.35,328.81c-2.15,11.45-8.49,18.21-19.02,20.28-43.1,7.55-87.22,5.66-129.58-5.53-9.64-1.66-15.03-6.98-16.15-15.95,0,0-2.58-47.39-7.73-142.16-1.9-27.33,6.91-34.68,28.25-41.36,6.87-2.15,16.7-5.23,29.51-9.24,0,0,20.21-1.23,60.64-3.69,8.29,3.12,38.2,12.54,54.18,20.7,13.41,6.85,16.61,15.55,15.06,32.01-10.1,96.63-15.15,144.95-15.15,144.95"/>
  <g class="cls-68">
    <path class="cls-26" d="m418.49,136.14c-11.59,8.74-26.75,12.76-45.48,12.05,15.47-1.19,29.78,8.27,34.74,22.97,4.96,14.7-.69,30.9-13.72,39.32-13.03,8.42-30.12,6.93-41.49-3.63-2.14,70.21-3.21,105.31-3.21,105.31,22.09-20.27-.15,40.93,81.99,33.36,6.94-.64,14.21-1.4,21.81-2.28,8.71-1.85,13.88-6.29,15.51-13.3,9.51-91.94,14.27-137.9,14.27-137.9,2.18-23.61-.6-30.79-13.5-36.39-14.05-6.06-31.02-12.57-50.91-19.52"/>
  </g>
  <g class="cls-71">
    <path class="cls-24" d="m422.33,137.5c-20.79,12.47-40.64,12.98-59.55,1.54,0,0-3.55,1.12-10.66,3.35,5.25,20.67,23.53,35.38,44.84,36.09,21.31.71,40.53-12.74,47.15-33.01-14.52-5.32-21.78-7.97-21.78-7.97"/>
  </g>
  <g class="cls-70">
    <path class="cls-24" d="m472.23,295.07c-105.88,17.29-158.82,25.93-158.82,25.93-.9,2.98-.18,6.22,1.9,8.53,2.08,2.32,5.22,3.38,8.28,2.8,98-14.34,147-21.51,147-21.51,1.09-10.51,1.63-15.76,1.63-15.76"/>
  </g>
  <path class="cls-35" d="m375.19,308.3c27.62-3.49,41.43-5.23,41.43-5.23-12.31,35.19-26.12,36.94-41.43,5.23m-.2-75.69c21.68-8.04,32.52-12.06,32.52-12.06,0,0-4.81-19.66-14.43-58.99-8.91.61-13.03,1.01-12.36,1.2-3.82,46.56-5.73,69.84-5.73,69.84Z"/>
  <path class="cls-40" d="m398.78,148.68c8.33-6.45,14.54-15.25,17.82-25.26-2.21-12.78-3.43-20.43-3.43-20.43-39.84,10.39-54.28,23.84-43.58,37.83,13.1,8.49,22.83,11.11,29.19,7.86"/>
  <g class="cls-74">
    <path class="cls-42" d="m367.22,142.72c7.29,2.52,10.94,3.78,10.94,3.78,21.07-5.73,35.16-23.99,34.75-45.01-38.92,18.46-54.15,32.21-45.69,41.23"/>
  </g>
  <g class="cls-73">
    <path class="cls-38" d="m369.71,128.17c23.89-12.57,35.84-18.86,35.84-18.86-3.76,17.47-17.54,31.04-35.07,34.53-.51-10.45-.77-15.67-.77-15.67"/>
  </g>
  <path class="cls-46" d="m395.99,154.67c-1.73-3.88-5.58-6.38-9.83-6.38s-8.1,2.5-9.83,6.38c.05,5.39,4.44,9.74,9.83,9.74s9.78-4.34,9.83-9.74"/>
  <path class="cls-27" d="m398.8,166.03c-1.22,11.59,20.46-21.25,21.41-23.1,4.02-7.8,3.83-15.5-1.23-23.19-1.18-1.91-2.05-2.02-2.14-.09-.56,5.58-9.86,13.92-27.88,25.02-3.99,2.38-4.76,4.24-1.73,5.51,8.46,3.38,12.31,8.66,11.56,15.85"/>
  <path class="cls-27" d="m372.94,165.35c1.28,11.68-16.7-18-12.63-36.97,0,0,2.03.29,6.1.88,4.88,7.8,8.73,10.08,16.29,14.72,4,2.38,4.78,4.24,1.75,5.51-8.45,3.38-12.28,8.66-11.5,15.85"/>
  <path class="cls-39" d="m411.92,100.71c16.8-44.19-.72-60.76-52.55-49.71-8.56,10.25-8.7,17.06-8.37,24.76.35,8.13-1.15,13.74-1.16,20.75-.01,6.74,4.57,17.82,6.71,24.71,2.83,9.51,8.75,11.84,17.72,10.3,15.25-2.63,36.48-13.34,37.66-30.81"/>
  <g class="cls-75">
    <path class="cls-45" d="m373.44,48.57c-4.37.55-9.06,1.36-14.07,2.43-8.56,10.25-8.7,17.06-8.37,24.76.35,8.13-1.15,13.74-1.16,20.75-.01,6.74,4.57,17.82,6.71,24.71,2.02,6.78,5.6,9.91,10.74,10.59-4.35-12.94-6.3-26.92-5.35-41.38.99-15.07,5.05-29.21,11.5-41.86"/>
  </g>
  <g class="cls-76">
    <path class="cls-41" d="m360.35,56.47c12.93-10.84,31.86-10.53,44.43.73,12.57,11.26,14.95,30.04,5.6,44.08-2.34,11.04-10.35,19.26-24.03,24.67,19.78-17.9-5.66-24.59-5.12-35.16.39-7.59,6.12-18.24-1.56-27.75-4.66-5.77-12.16-8.32-19.32-6.57"/>
  </g>
  <g class="cls-9">
    <path class="cls-34" d="m407.19,82.21c1.66,5.04,2.49,7.56,2.49,7.56l-16.96,10.08c2.68-2.27,4.46-5.51,4.88-9.13,8.06-.64,12.08-.96,12.08-.96,0,0,.77,1.33,2.31,4,0,0-9.06,5.21-27.17,15.64,0,0-1-1.02-3-3.07l6.88-4.09c-.17.07-.34.13-.52.19-5.13,1.76-10.82.41-14.62-3.47,4.3,2.7,9.84,2.37,13.78-.83,3.94-3.2,5.4-8.56,3.63-13.32,11.65-1.83,17.05-2.69,16.22-2.6"/>
  </g>
  <path class="cls-30" d="m422.51,82.84c-5.33,2.88-8.84,6.52-10.52,10.92-.07,1.35-.89,2.56-2.12,3.12-1.23.56-2.68.39-3.74-.45-1.07-.84-1.45-2.04-1.32-3.53,1.63-16.98-13.32-15.05-14.19-26.08-.19-2.34.26-5.01,1.32-8-5.59,2.55-9.65.88-14.33-.63-7.4-2.39-11.44-.95-18.49-1.86-6.11-.79-9.94-4.64-10.86-9.18-2.65-12.99,25.12-26.93,17.62-10.07,29.57-11.8,47.04-8.21,52.4,10.79,12.91,3.02,16.34,18.54,4.24,34.98"/>
  <path class="cls-61" d="m374.46,73.79c-.65.03-1.2-.47-1.22-1.12-.03-.65.47-1.2,1.12-1.22,2.49-.11,4.96.19,7.31.88,2.36.69,4.6,1.77,6.64,3.2.53.37.66,1.11.29,1.64-.37.53-1.11.66-1.64.29-1.82-1.28-3.83-2.25-5.94-2.86-2.12-.62-4.33-.89-6.55-.8"/>
  <path class="cls-61" d="m358.09,70.65c.65.01,1.17.55,1.15,1.2-.01.65-.55,1.17-1.2,1.15-1.21-.02-2.41.08-3.59.32-1.18.23-2.34.59-3.45,1.06-.6.25-1.29-.03-1.54-.62-.25-.6.03-1.29.62-1.54,1.26-.54,2.58-.94,3.92-1.21,1.34-.26,2.71-.38,4.09-.36"/>
  <path class="cls-67" d="m379.53,86.6c1.15.08,2.02,1.04,1.95,2.15-.07,1.11-1.07,1.95-2.21,1.87-1.15-.08-2.02-1.04-1.95-2.15.07-1.11,1.06-1.95,2.21-1.87"/>
  <path class="cls-43" d="m349.54,82.43c1.27.08,2.23,1.18,2.15,2.45-.08,1.27-1.18,2.23-2.45,2.15-1.27-.08-2.23-1.18-2.15-2.45.08-1.27,1.18-2.23,2.45-2.15"/>
  <path class="cls-43" d="m374.94,84.1c1.27.08,2.23,1.18,2.15,2.45-.08,1.27-1.18,2.23-2.45,2.15-1.27-.08-2.23-1.18-2.15-2.45.08-1.27,1.18-2.23,2.45-2.15"/>
  <path class="cls-63" d="m358.64,112.15c-.49-.1-.81-.58-.71-1.08.1-.49.58-.81,1.07-.71,3.22.67,6.02.8,8.38.41,2.29-.38,4.17-1.27,5.65-2.65.37-.34.94-.33,1.29.04.34.37.33.94-.04,1.29-1.74,1.64-3.94,2.68-6.6,3.13-2.58.43-5.6.29-9.05-.42"/>
  <path class="cls-63" d="m362.15,115.51c-.27-.06-.44-.32-.38-.58.05-.27.32-.44.58-.38,1.75.36,3.27.44,4.56.22,1.25-.21,2.27-.69,3.07-1.44.2-.19.51-.18.7.02.19.2.18.51-.02.7-.95.89-2.14,1.46-3.59,1.7-1.4.23-3.04.16-4.92-.23"/>
  <g class="cls-7">
    <path class="cls-36" d="m368.85,56.71c-3.03-.09-5.94.1-9.72-.39-6.11-.79-9.94-4.64-10.86-9.18-2.49-12.22,21.93-25.28,18.59-12.74-2.19,2.47-3.61,5.65-3.85,9.2-.35,5.26,1.99,10.08,5.84,13.11m13.99,3.03l-.16-.04"/>
  </g>
  <g class="cls-6">
    <path class="cls-25" d="m422.51,82.84c-5.33,2.88-8.84,6.52-10.52,10.92-.07,1.35-.89,2.56-2.12,3.12-1.23.56-2.68.39-3.74-.45-1.07-.84-1.45-2.04-1.32-3.53,1.11-11.62-5.53-14.39-10.12-18.5,13.61-6.31,21.18-21.64,17.25-36.67-.16-.59-.33-1.18-.52-1.76,3.14,2.87,5.42,6.84,6.85,11.89,12.91,3.02,16.34,18.54,4.24,34.98"/>
  </g>
  <path class="cls-64" d="m360.22,81.05c-.71-.9-1.57-1.64-2.54-2.17-.94-.51-1.98-.83-3.09-.9-1.11-.07-2.19.1-3.18.49-1.04.4-1.99,1.02-2.81,1.82-.83.81-1.52,1.8-2.02,2.91-.48,1.07-.79,2.27-.87,3.54-.08,1.27.06,2.5.4,3.63.35,1.17.9,2.24,1.62,3.15.71.9,1.57,1.64,2.54,2.17.94.51,1.98.83,3.09.9,1.11.07,2.19-.1,3.18-.49,1.04-.4,1.99-1.02,2.81-1.82.83-.81,1.52-1.8,2.02-2.91.48-1.07.79-2.27.87-3.54.08-1.27-.06-2.5-.4-3.63-.35-1.17-.9-2.24-1.62-3.15m28.24,1.95c-.86-.98-1.91-1.79-3.09-2.38-1.14-.56-2.41-.92-3.76-1.01-2.75-.18-5.32.77-7.24,2.45-1.92,1.68-3.2,4.1-3.38,6.85-.18,2.75.77,5.32,2.45,7.24,1.68,1.92,4.1,3.2,6.85,3.38,2.75.18,5.32-.77,7.24-2.45,1.92-1.68,3.2-4.1,3.38-6.85.09-1.35-.09-2.66-.5-3.86-.42-1.25-1.09-2.4-1.95-3.38Zm-33.74-6.97c1.67.11,3.22.66,4.56,1.53,1.34.87,2.47,2.08,3.31,3.5,1.48-.78,3.12-1.07,4.72-.92,1.6.16,3.15.77,4.45,1.81,1.2-1.45,2.71-2.57,4.38-3.31,1.73-.76,3.64-1.11,5.59-.98,1.95.13,3.81.73,5.43,1.71,1.59.97,2.95,2.31,3.96,3.94l26.02-1.78h.19s.01.18.01.18l.11,1.56v.19s-.18.01-.18.01l-25.21,1.72c.3.77.53,1.57.67,2.4.15.89.2,1.82.14,2.76-.22,3.29-1.75,6.18-4.05,8.2-2.3,2.01-5.37,3.15-8.66,2.94-3.29-.22-6.18-1.75-8.2-4.05-2.01-2.3-3.15-5.37-2.94-8.66.06-.97.24-1.91.52-2.8.27-.86.64-1.68,1.08-2.45-1.01-.85-2.23-1.34-3.49-1.47-1.26-.13-2.55.11-3.71.74.32.83.54,1.69.66,2.57.13.94.16,1.9.07,2.85v.07s-.06.05-.06.05c-.02.02-.04.04-.06.07-.02.02-.04.05-.06.07h0s-.06.08-.1.12h0c-.12.15-.24.31-.32.46l-.24.48h0s-.24.48-.24.48h0s0,.02,0,.02l-.11.17h0c-.08.12-.17.25-.23.36h0l-.06.1c-.25.42-.5.83-.75,1.24-.05.08-.08.17-.12.27h0s0,0,0,0v.02s-.02.01-.02.01c-.08.12-.14.21-.18.29-.04.08-.07.16-.11.27l.03.02h0s0,0,0,0h0c-.06.1-.11.19-.16.29-.04.1-.07.21-.09.32v.03s-.02.03-.02.03c-.05.1-.1.21-.15.33-.05.11-.09.22-.15.33h0s0,.02,0,.02c-.04.06-.07.12-.1.18-.03.06-.06.11-.09.18h0s0,.02,0,.02c-.14.17-.23.37-.28.58-.05.22-.05.44,0,.66l.03.11-.09.08c-.99.9-2.14,1.6-3.38,2.04-1.2.43-2.48.62-3.81.54-1.39-.09-2.7-.49-3.88-1.12-1.22-.66-2.29-1.58-3.17-2.69-.86-1.1-1.53-2.38-1.95-3.79-.41-1.35-.58-2.82-.48-4.33.1-1.51.47-2.94,1.05-4.23.6-1.34,1.43-2.52,2.43-3.5,1.01-.99,2.2-1.76,3.49-2.25,1.25-.48,2.6-.7,3.99-.6Z"/>
  <path class="cls-42" d="m364.84,85.02c1.7-3.12,3.13-2.54,2.98,1.12,0,0-.22,3.57-.65,10.71,2.01-.11,3.63,1.66,3.3,3.67-.19,1.2-1.06,2.19-2.23,2.54-1.05-1.76-2.37-.07-3.75,1.03-7.61,1.05-8.67-1.06-6.08-6.54l6.43-12.53Z"/>
  <path class="cls-67" d="m354.15,85.03c1.09.07,1.92.99,1.85,2.04-.07,1.06-1.01,1.85-2.11,1.78-1.09-.07-1.92-.99-1.85-2.04.07-1.06,1.01-1.85,2.11-1.78"/>
  <path class="cls-64" d="m393.47,121.72l23.16-23.63,1.13,1.1-23.16,23.63-1.13-1.1Zm-11.12-16.38l31.59-19.29.82,1.35-31.59,19.29-.82-1.35Z"/>
  <path class="cls-39" d="m420.97,80.53c4.81.32,7.43,5.9,5.85,12.47-1.58,6.57-6.76,11.64-11.58,11.32-4.81-.32-7.43-5.9-5.85-12.47,1.58-6.57,6.76-11.64,11.58-11.32"/>
  <path class="cls-50" d="m421.49,85.91c2.88.19,4.45,3.53,3.5,7.47-.95,3.94-4.05,6.97-6.94,6.78-2.88-.19-4.45-3.53-3.5-7.47.95-3.94,4.05-6.97,6.94-6.78"/>
  <path class="cls-38" d="m419.46,87.08c1.73.11,2.68,2.13,2.11,4.49-.57,2.37-2.44,4.19-4.17,4.08-1.73-.11-2.68-2.13-2.11-4.49.57-2.37,2.44-4.19,4.17-4.08"/>
  <path class="cls-46" d="m391.94,126.27c4.14-3.47,4.58-5.05,1.58-6.47-3.13-1.66-5.55-4.82-7.25-9.48-1.46-3.98-.71-4.94-4.97-7.51-2.58-1.56-5.76-2.74-7.49-3.38-4.28-1.58-8.11-2.34-11.49-2.25-5.6.14-11.66,2.68-12.39,8.87-2.43,20.83,21.72,38.52,42,20.23"/>
  <g class="cls-5">
    <path class="cls-43" d="m359.22,97.51c-4.55.87-8.69,3.49-9.28,8.54-1.64,14.02,8.78,26.63,21.95,27.78-10.26-9.14-15.01-22.8-12.67-36.32"/>
  </g>
  <path class="cls-27" d="m468.45,258c22.01-12.77,33.01-19.16,33.01-19.16,9.92,11.38,18.69,19.38,21.37,30.96,6.46,27.98-19.33,39.07-37.33,28.55-10.62-6.21-13.4-28.24-17.04-40.35"/>
  <g class="cls-4">
    <path class="cls-31" d="m377.92,307.21c23.5-2.47,35.26-3.7,35.26-3.7-2.36,5.29-4.97,10.45-7.82,15.49,0,0-5.98.8-17.95,2.39-3.32-4.62-6.48-9.35-9.48-14.18"/>
  </g>
  <path class="cls-43" d="m296.42,216.35l155.47-26.3c2.71-.46,5.31,1.38,5.77,4.1l16.29,96.28c.46,2.71-1.38,5.31-4.1,5.77l-155.47,26.3c-2.71.46-5.31-1.39-5.77-4.1l-16.29-96.28c-.46-2.71,1.39-5.31,4.1-5.77"/>
  <path class="cls-27" d="m312.65,263.72c-21.35-15.15-32.02-22.72-32.02-22.72-10.51,10.21-19.69,17.19-22.96,28.41-7.9,27.11,17.32,41,35.86,32.54,10.94-4.99,14.85-26.58,19.12-38.23"/>
  <path class="cls-60" d="m404.88,233.91c.27,1.64.75,2.81,1.46,3.51.71.7,1.55.96,2.55.8.86-.14,1.56-.55,2.12-1.23.55-.69.76-1.39.64-2.13l-.65-4.01c-.12-.74-.54-1.34-1.28-1.82-.74-.47-1.54-.64-2.4-.5-2.15.35-2.96,2.14-2.43,5.39m3.78-16.87l5.21-.84,3.93,24.23-4.83.78-.41-2.13h-.06c-1.14,1.88-2.73,2.98-4.75,3.3-1.92.31-3.62-.2-5.09-1.54-1.48-1.34-2.44-3.37-2.89-6.11-.45-2.8-.21-5.05.73-6.76.95-1.71,2.41-2.72,4.41-3.05,1.77-.29,3.49.13,5.15,1.24h.06s-1.48-9.13-1.48-9.13Zm-21.88,21.34c.36,1.26.95,2.1,1.78,2.54.82.44,2,.53,3.54.28,1.2-.19,2.78-.77,4.75-1.71l.61,3.75c-1.9.82-3.74,1.38-5.53,1.67-2.95.48-5.33.11-7.15-1.12-1.82-1.23-2.95-3.26-3.41-6.09-.46-2.82-.11-5.08,1.06-6.82,1.17-1.73,3.09-2.81,5.76-3.24,5.22-.85,8.29,1.62,9.23,7.4.07.44.11.98.13,1.6l-10.77,1.74Zm-.5-3.1l6-.97c-.41-2.41-1.56-3.46-3.43-3.16-1.01.16-1.72.56-2.12,1.18-.4.62-.55,1.61-.45,2.95Zm-17.74,6.06c.36,1.26.95,2.1,1.78,2.54.82.44,2,.53,3.54.28,1.2-.19,2.78-.77,4.75-1.71l.61,3.75c-1.9.82-3.74,1.38-5.53,1.67-2.95.48-5.33.11-7.15-1.12-1.82-1.23-2.95-3.26-3.41-6.09-.46-2.82-.11-5.09,1.06-6.82,1.17-1.73,3.09-2.81,5.76-3.24,5.22-.85,8.29,1.62,9.23,7.4.07.44.11.98.13,1.6l-10.77,1.74Zm-.5-3.1l6-.97c-.41-2.41-1.56-3.46-3.43-3.16-1.01.16-1.72.56-2.12,1.18-.4.62-.55,1.61-.45,2.95Zm-25.24,14.34l-3.83-23.61,5.27-.85,9.95,13.26h.06s-2.35-14.5-2.35-14.5l5.27-.85,3.83,23.61-5.27.85-9.95-13.26h-.06s2.35,14.5,2.35,14.5l-5.27.85Z"/>
  <path class="cls-60" d="m346.56,279.06l4.92-.8-3.98-9.17h-.06s-.88,9.97-.88,9.97Zm-6.51,10.58l3.81-24.85,5.84-.95,11.46,22.37-5.84.95-2.12-4.9-6.98,1.13-.46,5.32-5.71.93Z"/>
  <path class="cls-60" d="m433,273.89l-.79-4.86,5.62-.91.79,4.86-5.62.91Zm-4.3-23.53l6.56-1.06,1.83,16.29-4.99.81-3.41-16.03Zm-7.26,16.8c-.53-3.24-1.86-4.69-4-4.34-.87.14-1.57.55-2.13,1.24-.56.69-.78,1.4-.66,2.14l.65,4.01c.12.74.55,1.34,1.3,1.82.75.47,1.55.64,2.41.5.99-.16,1.71-.68,2.16-1.57.45-.88.54-2.14.28-3.79Zm-8.91-14.81l1.48,9.12h.06c1.24-1.59,2.74-2.53,4.5-2.81,2-.32,3.72.18,5.15,1.5,1.44,1.32,2.38,3.38,2.84,6.18.44,2.74.17,4.97-.81,6.7-.98,1.73-2.43,2.76-4.35,3.07-2.02.33-3.87-.21-5.54-1.63h-.06s.28,2.16.28,2.16l-4.83.78-3.93-24.23,5.21-.84Zm-16.19,22.84c.65.71,1.52.98,2.59.81,1.07-.17,1.81-.7,2.2-1.58.4-.89.45-2.22.16-4.01-.29-1.79-.76-3.03-1.42-3.75-.65-.71-1.52-.98-2.59-.81-1.07.17-1.81.7-2.2,1.58-.4.89-.45,2.22-.16,4.01.29,1.79.76,3.03,1.42,3.75Zm-5.52-9.68c1.24-1.78,3.2-2.88,5.88-3.31,2.67-.43,4.87,0,6.6,1.29,1.73,1.29,2.82,3.31,3.27,6.07.45,2.75.05,5.01-1.19,6.77-1.23,1.76-3.19,2.86-5.86,3.29-2.67.43-4.87.01-6.6-1.27-1.73-1.28-2.82-3.3-3.26-6.05-.45-2.75-.06-5.02,1.17-6.78Zm-18.49,17.43l-.77-4.76c2.15.62,4.19.77,6.13.46,1.33-.21,2.24-.77,2.73-1.67.49-.9.58-2.31.27-4.22l-2.31-14.24,5.65-.92,2.43,14.99c.51,3.18.2,5.57-.96,7.19-1.15,1.61-3.25,2.67-6.3,3.16-2.46.4-4.75.4-6.86,0Z"/>
  <g class="cls-1">
    <path class="cls-26" d="m306.79,273.83c-22.35-6-33.53-9-33.53-9,.89,14.28,10.04,26.72,23.4,31.83,4.22-6.33,7.6-13.94,10.13-22.83"/>
  </g>
  <g class="cls-8">
    <path class="cls-26" d="m480.01,288.03c1.88,3.35,3.97,5.34,6.27,5.95,14.96-10.32,22.14-28.71,18.12-46.44-21.69,9.5-32.53,14.24-32.53,14.24,1.98,7.48,4.26,19.33,8.14,26.24"/>
  </g>
  <g class="cls-2">
    <path class="cls-26" d="m306.79,273.83c-9.54-2.41-19.51-2.56-29.12-.42,7,6.9,16.94,9.93,26.6,8.12.94-2.53,1.79-5.1,2.52-7.7"/>
  </g>
  <g class="cls-3">
    <path class="cls-26" d="m471.87,261.79c2.05,8.18,3.07,12.26,3.07,12.26,6.41,1.65,13.23.4,18.65-3.4,5.42-3.81,8.9-9.79,9.53-16.39-20.83,5.02-31.24,7.52-31.24,7.52"/>
  </g>
  <path class="cls-40" d="m484.78,263.62c4.3,1.99,9.29,1.85,13.46-.4,10.02-5.38,7.71-11.18,5.02-19.08-.53-1.55-1.13-3.31-1.8-5.3-2.18-6.4-3.68-12.04-7.55-15.85-2.05-2.02-4.58-3.11-7.27-3.85-5.89-1.61-12.03-3.37-17.99-.44,0-.05-4.72,1.66-14.14,6.24-2.62,1.28-4.82,2.46-3.42,6.08.61,1.58,2,2.74,3.67,3.05-1.84,1.25-2.71,3.51-2.19,5.67.52,2.16,2.33,3.77,4.54,4.05-.74,1.5-.74,3.27,0,4.77.75,1.5,2.16,2.56,3.81,2.87-2.58,3.86.13,6.8,3.71,8.14,6.37,2.38,13.08,3.73,20.15,4.06"/>
  <path class="cls-65" d="m461.02,252.73c-.72.05-1.34-.48-1.4-1.2-.05-.72.49-1.34,1.2-1.4l13.99-1.09h0c2.21-.19,4.14-.17,5.8.04,1.74.22,3.17.66,4.3,1.32.62.36.83,1.16.47,1.78-.36.62-1.16.83-1.78.47-.84-.49-1.94-.82-3.32-.99-1.45-.18-3.21-.19-5.26-.02h0s-.01,0-.01,0l-14,1.09Z"/>
  <path class="cls-65" d="m457.45,244.46c-.7.15-1.4-.3-1.54-1-.15-.7.3-1.4,1-1.54,1.44-.31,3.18-.74,5.1-1.21,5.44-1.33,12.26-3.01,16.38-3.1,1.44-.03,2.78.14,4.15.44,1.34.3,2.68.71,4.19,1.2.68.22,1.06.95.84,1.64-.22.68-.95,1.06-1.64.84-1.46-.47-2.75-.87-3.96-1.14-1.18-.26-2.32-.41-3.54-.38-3.83.08-10.5,1.72-15.82,3.02-2,.49-3.82.94-5.17,1.23"/>
  <path class="cls-65" d="m455.18,235.31c-.68.23-1.42-.13-1.65-.82-.23-.68.13-1.42.82-1.65l10.49-3.57c1.78-.6,3.25-1.15,4.49-1.61,6.2-2.3,7.11-2.64,16.48,0,.69.19,1.1.91.9,1.61-.19.69-.91,1.1-1.61.9-8.55-2.41-9.36-2.11-14.88-.06-1.24.46-2.7,1-4.55,1.63l-10.49,3.57Z"/>
  <path class="cls-40" d="m294.03,275.62c-4.3,1.99-9.29,1.85-13.46-.4-10.25-5.5-7.59-11.51-4.86-19.54.49-1.43,1.04-3.05,1.65-4.84,2.18-6.4,3.68-12.04,7.55-15.85,2.05-2.02,4.58-3.11,7.27-3.85,5.89-1.61,12.03-3.37,17.99-.44,0-.05,4.72,1.66,14.14,6.24,2.62,1.27,4.82,2.46,3.42,6.08-.61,1.58-2,2.74-3.67,3.05,1.84,1.25,2.71,3.51,2.19,5.67-.52,2.16-2.33,3.77-4.54,4.05.74,1.5.74,3.27,0,4.77-.75,1.5-2.16,2.56-3.81,2.87,2.58,3.86-.13,6.8-3.71,8.14-6.37,2.38-13.08,3.73-20.15,4.06"/>
  <path class="cls-65" d="m317.8,264.73c.72.05,1.34-.48,1.4-1.2.05-.72-.49-1.34-1.2-1.4l-13.99-1.09h0c-2.21-.19-4.14-.17-5.8.04-1.74.22-3.17.66-4.3,1.32-.62.36-.83,1.16-.47,1.78.36.62,1.16.83,1.78.47.84-.49,1.94-.82,3.32-.99,1.45-.18,3.21-.19,5.26-.02h0s0,0,0,0l14,1.09Z"/>
  <path class="cls-65" d="m321.37,256.47c.7.15,1.4-.3,1.54-1,.15-.7-.3-1.4-1-1.54-1.44-.31-3.18-.74-5.1-1.21-5.44-1.33-12.26-3.01-16.38-3.1-1.44-.03-2.78.14-4.15.44-1.34.3-2.68.71-4.19,1.2-.68.22-1.06.95-.84,1.64.22.68.95,1.06,1.64.84,1.46-.47,2.75-.87,3.96-1.14,1.18-.26,2.32-.4,3.54-.38,3.83.08,10.5,1.72,15.82,3.02,2,.49,3.82.94,5.17,1.23"/>
  <path class="cls-65" d="m323.64,247.31c.68.23,1.42-.13,1.65-.82.23-.68-.13-1.42-.82-1.65l-10.49-3.57c-1.78-.61-3.25-1.15-4.49-1.61-6.2-2.3-7.11-2.64-16.48,0-.69.19-1.1.91-.9,1.61.19.69.91,1.1,1.61.9,8.55-2.41,9.36-2.11,14.88-.06,1.24.46,2.7,1,4.55,1.63l10.49,3.57Z"/>
  <path class="cls-43" d="m231.78,93.66c-5.07-5.12-12.48-7.15-19.45-5.33-6.97,1.82-12.44,7.22-14.35,14.17,83.71.13,125.56.2,125.56.2-4.48-7.63-14.11-10.46-22.01-6.48-2.74-16.73-16.9-29.2-33.83-29.82-16.94-.62-31.97,10.79-35.92,27.27"/>
  <path class="cls-43" d="m457.03,112.05c-3.48-3.51-8.56-4.91-13.35-3.66-4.78,1.25-8.54,4.96-9.85,9.72,57.45.09,86.17.13,86.17.13-3.07-5.23-9.68-7.18-15.1-4.45-1.88-11.48-11.59-20.04-23.22-20.47-11.62-.43-21.94,7.4-24.65,18.71"/>
  <rect class="cls-66" x="91.88" y="274.86" width="63.7" height="5.34"/>
  <rect class="cls-66" x="91.88" y="284.52" width="63.7" height="5.34"/>
  <rect class="cls-66" x="91.88" y="301.56" width="63.7" height="5.34"/>
  <rect class="cls-66" x="91.88" y="311.22" width="63.7" height="5.34"/>
  <rect class="cls-66" x="189.49" y="235.61" width="9.06" height="9.64"/>
  <rect class="cls-66" x="208.06" y="235.61" width="9.06" height="9.64"/>
  <rect class="cls-66" x="226.16" y="235.61" width="9.06" height="9.64"/>
  <rect class="cls-66" x="244.08" y="235.61" width="9.06" height="9.64"/>
  <rect class="cls-66" x="189.49" y="254.78" width="9.06" height="9.64"/>
  <rect class="cls-66" x="208.06" y="254.78" width="9.06" height="9.64"/>
  <rect class="cls-66" x="226.16" y="254.78" width="9.06" height="9.64"/>
  <rect class="cls-66" x="244.08" y="254.78" width="9.06" height="9.64"/>
  <rect class="cls-66" x="189.49" y="295.27" width="9.06" height="9.64"/>
  <rect class="cls-66" x="208.06" y="295.27" width="9.06" height="9.64"/>
  <rect class="cls-66" x="226.16" y="295.27" width="9.06" height="9.64"/>
  <rect class="cls-66" x="244.08" y="295.27" width="9.06" height="9.64"/>
  <rect class="cls-66" x="189.49" y="314.45" width="9.06" height="9.64"/>
  <rect class="cls-66" x="208.06" y="314.45" width="9.06" height="9.64"/>
  <rect class="cls-66" x="226.16" y="314.45" width="9.06" height="9.64"/>
  <rect class="cls-66" x="244.08" y="314.45" width="9.06" height="9.64"/>
  <path class="cls-28" d="m217.83,413.77c-4.04-1.3-7.42-4.07-9.38-7.89-1.98-3.86-2.27-8.31-.92-12.33,1.19-3.55,1.32-3.71,4.75-2.72,8.96,2.6,13.74,10.98,11.32,19.25-1.26,4.29-1.65,5.01-5.77,3.68"/>
  <path class="cls-28" d="m227.16,397.18c-3.59-1.6-6.44-4.49-7.86-8.2-1.44-3.76-1.26-7.88.38-11.45,1.45-3.15,1.59-3.29,4.65-2.03,7.99,3.28,11.57,11.48,8.52,18.86-1.58,3.83-2.02,4.45-5.69,2.82"/>
  <path class="cls-28" d="m235.88,383.21c-3.13-2.26-5.3-5.61-5.92-9.47-.63-3.9.36-7.84,2.66-10.94,2.03-2.74,2.18-2.85,4.88-1.02,7.04,4.76,8.83,13.37,4.42,19.85-2.29,3.36-2.84,3.88-6.04,1.58"/>
  <path class="cls-28" d="m247.41,378.22c-.44-3.4.42-6.83,2.54-9.58,2.15-2.78,5.3-4.52,8.71-4.91,3-.35,3.17-.31,3.62,2.54,1.18,7.45-3.3,13.84-10.19,14.91-3.57.56-4.24.51-4.69-2.96"/>
  <path class="cls-48" d="m270,390.97c-2.25,3.14-5.6,5.31-9.45,5.94-3.9.64-7.84-.35-10.95-2.63-2.74-2.02-2.85-2.18-1.04-4.88,4.74-7.05,13.35-8.87,19.84-4.47,3.37,2.28,3.89,2.83,1.59,6.03"/>
  <path class="cls-28" d="m260.62,409.68c-3.1,2.41-6.99,3.57-10.93,3.08-3.99-.5-7.55-2.59-9.93-5.72-2.1-2.76-2.16-2.95.39-5.06,6.66-5.51,15.58-4.81,20.65,1.36,2.63,3.2,2.98,3.88-.18,6.35"/>
  <path class="cls-28" d="m253,425.18c-3.32,2.64-7.5,3.92-11.76,3.43-4.31-.49-8.17-2.72-10.77-6.07-2.29-2.96-2.36-3.15.37-5.46,7.13-6.01,16.75-5.35,22.29,1.25,2.87,3.42,3.25,4.16-.13,6.85"/>
  <path class="cls-28" d="m224.14,422.44c6.79-12.98,14.75-25.34,23.42-37.26.46-.64.32-1.53-.32-2-.64-.47-1.53-.32-2,.32-8.73,11.99-16.68,24.59-23.49,37.76.81.38,1.61.77,2.38,1.19"/>
  <path class="cls-64" d="m139.4,192.12c.38-1.14,1.6-1.76,2.74-1.38,1.14.38,1.76,1.6,1.38,2.74-.15.44-.17.9-.07,1.32.09.43.3.83.62,1.17.32.34.71.58,1.13.7.43.12.89.13,1.34.01,1.16-.3,2.34.4,2.64,1.55.3,1.16-.4,2.34-1.55,2.64-1.21.31-2.45.29-3.61-.05-1.17-.34-2.25-.98-3.1-1.89-.86-.91-1.43-2.02-1.69-3.21-.26-1.19-.21-2.44.18-3.62"/>
  <path class="cls-64" d="m189.57,233.17c.22.66.93,1.02,1.59.8.66-.22,1.02-.93.8-1.59-.08-.26-.1-.52-.04-.77.05-.25.18-.48.36-.68.18-.2.41-.33.65-.4.25-.07.51-.08.77,0,.67.17,1.35-.23,1.53-.9.17-.67-.23-1.35-.9-1.53-.7-.18-1.42-.17-2.09.03-.68.2-1.3.57-1.79,1.09-.49.53-.83,1.17-.98,1.86-.15.69-.12,1.41.1,2.09"/>
  <path class="cls-64" d="m147.45,335.26c.22-.66.93-1.02,1.59-.8.66.22,1.02.93.8,1.59-.08.26-.1.52-.04.77.05.25.18.48.36.68.18.2.41.33.65.4.25.07.51.08.77,0,.67-.17,1.35.23,1.53.9.17.67-.23,1.35-.9,1.53-.7.18-1.42.17-2.09-.03-.68-.2-1.3-.57-1.79-1.09-.49-.53-.83-1.17-.98-1.86-.15-.69-.12-1.41.1-2.09"/>
  <path class="cls-64" d="m305.88,358.62c.22-.66.93-1.02,1.59-.8.66.22,1.02.93.8,1.59-.08.26-.1.52-.04.77.05.25.18.48.36.68.18.2.41.33.65.4.25.07.51.08.77,0,.67-.17,1.35.23,1.53.9.17.67-.23,1.35-.9,1.53-.7.18-1.42.17-2.09-.03-.68-.2-1.3-.57-1.79-1.09-.49-.53-.83-1.17-.98-1.86-.15-.69-.12-1.41.1-2.09"/>
  <path class="cls-64" d="m448.08,365.26c.38,1.14,1.6,1.76,2.74,1.38,1.14-.38,1.76-1.6,1.38-2.74-.15-.44-.17-.9-.07-1.32.09-.43.3-.83.62-1.17.32-.34.71-.58,1.13-.7.43-.12.89-.13,1.34-.01,1.16.3,2.34-.4,2.64-1.55.3-1.16-.4-2.34-1.55-2.64-1.21-.31-2.45-.29-3.61.05-1.17.34-2.25.98-3.1,1.89-.86.91-1.43,2.02-1.69,3.21-.26,1.19-.21,2.44.18,3.62"/>
  <path class="cls-64" d="m558.76,215.66c-1.32.12-2.29,1.29-2.17,2.62.12,1.32,1.29,2.29,2.62,2.17.52-.05,1.01.04,1.45.25.44.21.82.53,1.11.96.29.43.45.91.47,1.39.03.49-.08.99-.31,1.44-.61,1.17-.15,2.62,1.02,3.23,1.17.61,2.62.15,3.23-1.02.64-1.22.91-2.57.84-3.91-.07-1.34-.5-2.66-1.27-3.8-.77-1.15-1.83-2.04-3.04-2.61-1.22-.58-2.58-.83-3.94-.7"/>
  <path class="cls-64" d="m450.43,82.31c-.99-.09-1.72-.97-1.62-1.96.09-.99.97-1.72,1.96-1.62.39.04.76-.03,1.08-.18.33-.16.62-.4.83-.72.22-.32.33-.68.35-1.04.02-.37-.06-.74-.23-1.08-.46-.88-.11-1.96.77-2.42.88-.46,1.96-.11,2.42.77.48.91.68,1.93.63,2.92-.06,1.01-.38,1.99-.95,2.85-.58.86-1.37,1.53-2.28,1.96-.91.43-1.93.62-2.95.53"/>
  <path class="cls-64" d="m340.07,191.97c-.74.07-1.28.73-1.22,1.47.07.74.73,1.28,1.47,1.22.29-.03.57.02.81.14.25.12.46.3.62.54.16.24.25.51.27.78.02.27-.04.55-.18.81-.34.66-.08,1.47.57,1.81.66.34,1.47.08,1.81-.57.36-.68.51-1.44.47-2.19-.04-.75-.28-1.49-.71-2.13-.43-.64-1.03-1.14-1.7-1.46-.68-.32-1.44-.47-2.21-.39"/>
</svg>