<?xml version="1.0" encoding="UTF-8"?>
<svg id="Layer_1" data-name="Layer 1" xmlns="http://www.w3.org/2000/svg" xmlns:xlink="http://www.w3.org/1999/xlink" viewBox="0 0 1366 768">
  <defs>
    <style>
      .cls-1 {
        clip-path: url(#clippath);
      }

      .cls-2, .cls-3, .cls-4, .cls-5, .cls-6, .cls-7, .cls-8, .cls-9, .cls-10, .cls-11, .cls-12, .cls-13, .cls-14, .cls-15, .cls-16, .cls-17, .cls-18, .cls-19, .cls-20, .cls-21, .cls-22, .cls-23 {
        stroke-width: 0px;
      }

      .cls-2, .cls-24, .cls-25 {
        fill: none;
      }

      .cls-26 {
        opacity: .1;
      }

      .cls-27 {
        font-family: DINCondensed-Bold, 'DIN Condensed';
        font-size: 48.62px;
        font-weight: 700;
      }

      .cls-27, .cls-17 {
        fill: #fff;
      }

      .cls-28 {
        opacity: .2;
      }

      .cls-29, .cls-5 {
        opacity: .3;
      }

      .cls-30 {
        opacity: .6;
      }

      .cls-31 {
        opacity: .5;
      }

      .cls-3 {
        fill: #6bc6d9;
      }

      .cls-3, .cls-4, .cls-25 {
        fill-rule: evenodd;
      }

      .cls-4 {
        fill: #009ec0;
      }

      .cls-24 {
        stroke: #e5232f;
        stroke-width: 8px;
      }

      .cls-24, .cls-25 {
        stroke-miterlimit: 10;
      }

      .cls-25 {
        stroke: #fff;
        stroke-width: 52px;
      }

      .cls-5, .cls-9 {
        fill: #44220c;
      }

      .cls-6 {
        fill: #f4ae69;
      }

      .cls-7 {
        fill: #f9b32f;
      }

      .cls-8 {
        fill: #191919;
      }

      .cls-10 {
        fill: #102770;
      }

      .cls-11 {
        fill: #c67009;
      }

      .cls-12 {
        fill: #dc7633;
      }

      .cls-13 {
        fill: #b4512a;
      }

      .cls-14 {
        fill: #d88e4c;
      }

      .cls-15 {
        fill: #fce8d6;
      }

      .cls-16 {
        fill: #ffca28;
      }

      .cls-18 {
        fill: #e5a24a;
      }

      .cls-19 {
        fill: #e5232f;
      }

      .cls-20 {
        fill: #ffc166;
      }

      .cls-21 {
        fill: #fcbc90;
      }

      .cls-22 {
        fill: #ffd6b8;
      }

      .cls-23 {
        fill: #ff571c;
      }
    </style>
    <clipPath id="clippath">
      <path class="cls-2" d="m1284.27,550.07h-88.12c-3.3,0-5.98,2.68-5.98,5.98s2.68,5.98,5.98,5.98h88.12c3.3,0,5.98-2.68,5.98-5.98s-2.68-5.98-5.98-5.98h0Z"/>
    </clipPath>
  </defs>
  <path class="cls-25" d="m109,293s150-132,211-79-214,302-156,353,738.5-284.39,872-335c182-69,259,126,190,203s-136.78,224.13-8,200"/>
  <g>
    <circle class="cls-19" cx="687.66" cy="353.69" r="230.28"/>
    <circle class="cls-24" cx="687.66" cy="353.69" r="255.85" transform="translate(-48.69 589.84) rotate(-45)"/>
  </g>
  <g>
    <path class="cls-4" d="m934.93,543.93h-494.59v91.31h494.59v-91.31Zm6.99,35.7v60.39h0v2.12l-1.95.94-57.87,27.85h120.22l-30.67-43.73-1.35-1.92,1.35-1.92,30.66-43.73h-60.4Zm-448.75,91.31l-57.87-27.85-1.95-.94v-62.52h-60.4l30.65,43.73,1.35,1.92-1.35,1.92-30.65,43.73h120.22Z"/>
    <g>
      <polygon class="cls-3" points="926.24 642.07 872.02 642.07 872.02 668.19 926.24 642.07"/>
      <polygon class="cls-3" points="449.02 642.07 503.24 668.18 503.24 642.07 449.02 642.07"/>
    </g>
  </g>
  <g>
    <path class="cls-17" d="m586.12,208.99v15.55h-12v62.16h-20.21v-62.16h-11.95v-15.55h44.16Z"/>
    <path class="cls-17" d="m637.19,208.99v77.71h-20.21v-32.64h-6.05v32.64h-20.21v-77.71h20.21v27.79h6.05v-27.79h20.21Z"/>
    <path class="cls-17" d="m645.3,208.99h33.7v15.55h-13.49v14.74h12.62v14.78h-12.62v17.09h14.83v15.55h-35.04v-77.71Z"/>
    <path class="cls-17" d="m545.41,314.96h33.7v15.55h-13.49v14.74h12.62v14.78h-12.62v17.09h14.83v15.55h-35.04v-77.71Z"/>
    <path class="cls-17" d="m648.62,314.96v77.71h-17.66l-.02-52.46-7.03,52.46h-12.53l-7.42-51.26-.02,51.26h-17.66v-77.71h26.15c.78,4.67,1.57,10.18,2.4,16.52l2.87,19.77,4.64-36.29h26.29Z"/>
    <path class="cls-17" d="m656.73,314.96h20.35c5.5,0,9.74.43,12.7,1.3,2.96.86,5.18,2.11,6.67,3.74,1.49,1.63,2.5,3.61,3.02,5.93.53,2.32.79,5.91.79,10.78v6.77c0,4.96-.51,8.58-1.54,10.85-1.03,2.27-2.9,4.02-5.64,5.23-2.74,1.22-6.31,1.82-10.73,1.82h-5.42v31.3h-20.21v-77.71Zm20.21,13.3v19.78c.58.03,1.07.05,1.49.05,1.86,0,3.14-.46,3.86-1.37.72-.91,1.08-2.81,1.08-5.69v-6.38c0-2.66-.42-4.38-1.25-5.18-.83-.8-2.56-1.2-5.18-1.2Z"/>
    <path class="cls-17" d="m738.56,314.96l11.56,77.71h-20.65l-1.08-13.97h-7.23l-1.22,13.97h-20.89l10.31-77.71h29.21Zm-10.71,49.97c-1.02-8.8-2.05-19.68-3.08-32.64-2.06,14.88-3.35,25.76-3.88,32.64h6.96Z"/>
    <path class="cls-17" d="m788.83,314.96v15.55h-12v62.16h-20.21v-62.16h-11.95v-15.55h44.16Z"/>
    <path class="cls-17" d="m839.9,314.96v77.71h-20.21v-32.64h-6.05v32.64h-20.21v-77.71h20.21v27.79h6.05v-27.79h20.21Z"/>
    <path class="cls-17" d="m891.07,314.96l-14.74,49.58v28.13h-18.72v-28.13l-14.21-49.58h18.56c2.9,15.17,4.54,25.38,4.91,30.62,1.12-8.29,3-18.5,5.63-30.62h18.56Z"/>
    <path class="cls-17" d="m545.41,420.92h15.12c9.76,0,16.36.45,19.8,1.34,3.44.9,6.06,2.37,7.85,4.42,1.79,2.05,2.91,4.33,3.36,6.84.45,2.51.67,7.45.67,14.81v27.22c0,6.98-.33,11.64-.98,13.99-.66,2.35-1.8,4.19-3.43,5.52-1.63,1.33-3.65,2.26-6.05,2.78s-6.02.79-10.85.79h-25.49v-77.71Zm20.21,13.3v51.12c2.91,0,4.7-.58,5.38-1.75.67-1.17,1.01-4.34,1.01-9.53v-30.19c0-3.52-.11-5.78-.34-6.77-.22-.99-.74-1.72-1.54-2.18-.8-.46-2.3-.7-4.51-.7Z"/>
    <path class="cls-17" d="m599.75,420.92h33.7v15.55h-13.49v14.74h12.62v14.78h-12.62v17.09h14.83v15.55h-35.04v-77.71Z"/>
    <path class="cls-17" d="m687.78,454.76h-20.21v-13.51c0-3.93-.22-6.38-.65-7.35-.43-.97-1.38-1.46-2.86-1.46-1.66,0-2.72.59-3.17,1.78-.45,1.18-.67,3.74-.67,7.68v36.1c0,3.78.22,6.24.67,7.39.45,1.15,1.46,1.73,3.02,1.73s2.49-.58,2.95-1.73c.46-1.16.7-3.87.7-8.13v-9.77h20.21v3.03c0,8.04-.57,13.75-1.7,17.11-1.14,3.37-3.65,6.31-7.54,8.85-3.89,2.53-8.68,3.8-14.38,3.8s-10.8-1.07-14.64-3.22c-3.84-2.14-6.38-5.11-7.63-8.9s-1.87-9.5-1.87-17.11v-22.7c0-5.6.19-9.8.58-12.6.38-2.8,1.53-5.5,3.43-8.09,1.9-2.59,4.54-4.63,7.92-6.12,3.38-1.49,7.26-2.23,11.64-2.23,5.95,0,10.86,1.15,14.74,3.45,3.87,2.3,6.42,5.17,7.63,8.6,1.22,3.44,1.82,8.78,1.82,16.03v7.38Z"/>
    <path class="cls-17" d="m743.2,420.92l-11.59,35.09,12.7,42.62h-20.88l-8.18-33.31v33.31h-20.21v-77.71h20.21v30.19l9-30.19h18.96Z"/>
  </g>
  <g>
    <g>
      <path class="cls-16" d="m1283.08,570.85h5.43c3.5,0,6.96.85,10,2.58,4.65,2.65,9.84,7.92,9.84,18.2v12.22s.53,26.29-26.29,26.29h-7.98l6.28-12.63s10.46,2.33,15.13-7.72c.8-1.73,1.18-3.64,1.18-5.54v-11.91c0-2.03-.42-4.06-1.33-5.87-1.06-2.12-2.92-4.38-6.11-4.91h-6.14v-10.68h0Z"/>
      <path class="cls-10" d="m1282.05,631.45h-7.98c-.46,0-.88-.24-1.12-.62s-.26-.87-.06-1.28l6.28-12.63c.27-.54.88-.83,1.47-.7.38.08,9.5,1.95,13.64-6.99.7-1.51,1.05-3.18,1.05-4.99v-11.91c0-1.9-.41-3.73-1.19-5.29-1.19-2.38-2.89-3.79-5.04-4.19h-6.02c-.73,0-1.32-.59-1.32-1.32v-10.68c0-.73.59-1.32,1.32-1.32h5.43c3.81,0,7.49.95,10.65,2.76,4.79,2.74,10.51,8.31,10.51,19.34v12.22c0,.47.15,12.15-7.78,20.24-4.79,4.89-11.46,7.37-19.83,7.37h0Zm-5.85-2.64h5.85c7.63,0,13.68-2.21,17.95-6.58,7.16-7.31,7.03-18.26,7.02-18.37v-12.24c0-9.76-4.99-14.66-9.18-17.05-2.76-1.58-5.99-2.41-9.34-2.41h-4.11v8.05h4.82c.07,0,.14,0,.22.02,3.04.51,5.48,2.45,7.07,5.62.96,1.92,1.47,4.15,1.47,6.46v11.91c0,2.19-.44,4.24-1.3,6.1-4.15,8.95-12.61,8.92-15.57,8.61l-4.91,9.88h0Z"/>
    </g>
    <g>
      <g class="cls-30">
        <path class="cls-17" d="m1280.51,620.14l.6-1.2c1.94.21,6.28.29,10.2-2.24-3.75,3.24-8.27,3.57-10.8,3.44h0Z"/>
      </g>
      <g class="cls-30">
        <path class="cls-17" d="m1298.48,623.39c7.16-7.29,7.04-18.28,7.04-18.42v-12.22c0-9.76-4.99-14.66-9.18-17.05-2.76-1.58-5.99-2.41-9.34-2.41h-2.6v-1.13h4.11c3.35,0,6.58.83,9.34,2.41,4.19,2.39,9.18,7.29,9.18,17.05v12.22c0,.14.11,11.13-7.04,18.42-.92.94-1.93,1.77-3.02,2.51.52-.44,1.03-.89,1.51-1.38h0Z"/>
      </g>
    </g>
    <g class="cls-28">
      <path class="cls-10" d="m1294.65,609.78c.74-1.73,1.08-3.64,1.08-5.54v-11.91c0-2.03-.39-4.06-1.22-5.87-.98-2.12-2.68-4.38-5.61-4.91h4.17c2.93.53,4.63,2.79,5.61,4.91.83,1.82,1.22,3.84,1.22,5.87v11.91c0,1.91-.34,3.81-1.08,5.54-3.79,8.92-11.77,8.1-13.54,7.8,3.09-.49,7.03-2.29,9.37-7.8h0Z"/>
    </g>
    <g class="cls-28">
      <polygon class="cls-10" points="1283.6 581.53 1283.6 570.85 1289.61 570.85 1288.4 581.53 1283.6 581.53"/>
    </g>
    <g class="cls-28">
      <path class="cls-10" d="m1308.34,603.84v-4c-.02,2.42-.84,23.3-21.98,25.81-1.66.2-2.88-1.5-2.14-3l2.48-5.02c-3.22.3-4.72-.13-4.72-.13l-5.26,8.4h-.55l-2.11,4.23h7.98c26.82,0,26.29-26.29,26.29-26.29h0Z"/>
    </g>
  </g>
  <g>
    <g>
      <path class="cls-16" d="m1197.34,570.85h-5.43c-3.5,0-6.96.85-10,2.58-4.65,2.65-9.84,7.92-9.84,18.2v12.22s-.53,26.29,26.29,26.29h7.98l-6.28-12.63s-10.46,2.33-15.13-7.72c-.8-1.73-1.18-3.64-1.18-5.54v-11.91c0-2.03.42-4.06,1.33-5.87,1.06-2.12,2.92-4.38,6.11-4.91h6.14v-10.68h0Z"/>
      <path class="cls-10" d="m1206.36,631.45h-7.98c-8.37,0-15.04-2.48-19.83-7.37-7.93-8.09-7.79-19.78-7.78-20.27v-12.19c0-11.03,5.71-16.6,10.51-19.34,3.16-1.8,6.84-2.75,10.65-2.75h5.43c.73,0,1.32.59,1.32,1.32v10.68c0,.73-.59,1.32-1.32,1.32h-6.02c-2.16.39-3.85,1.8-5.04,4.19-.78,1.56-1.19,3.38-1.19,5.29v11.91c0,1.8.35,3.48,1.05,4.99,4.17,8.99,13.26,7.08,13.64,6.99.59-.13,1.2.16,1.47.7l6.28,12.63c.2.41.18.89-.06,1.28-.24.39-.66.62-1.12.62h0Zm-14.44-59.29c-3.35,0-6.58.83-9.34,2.41-4.19,2.39-9.18,7.29-9.18,17.05v12.22c0,.14-.11,11.13,7.04,18.42,4.27,4.35,10.31,6.56,17.94,6.56h5.85l-4.91-9.88c-2.95.31-11.42.34-15.56-8.61-.86-1.86-1.3-3.91-1.3-6.1v-11.91c0-2.31.51-4.54,1.47-6.46,1.59-3.17,4.03-5.12,7.07-5.62.07-.01.14-.02.22-.02h4.82v-8.05h-4.11Z"/>
    </g>
    <g>
      <g class="cls-30">
        <path class="cls-17" d="m1199.91,620.14l-.6-1.2c-1.94.21-6.28.29-10.2-2.24,3.75,3.24,8.27,3.57,10.8,3.44h0Z"/>
      </g>
      <g class="cls-30">
        <path class="cls-17" d="m1181.95,623.39c-7.16-7.29-7.04-18.28-7.04-18.42v-12.22c0-9.76,4.99-14.66,9.18-17.05,2.76-1.58,5.99-2.41,9.34-2.41h2.6v-1.13h-4.11c-3.35,0-6.58.83-9.34,2.41-4.19,2.39-9.18,7.29-9.18,17.05v12.22c0,.14-.11,11.13,7.04,18.42.92.94,1.93,1.77,3.02,2.51-.52-.44-1.03-.89-1.51-1.38Z"/>
      </g>
    </g>
    <g class="cls-28">
      <path class="cls-10" d="m1185.78,609.78c-.74-1.73-1.08-3.64-1.08-5.54v-11.91c0-2.03.39-4.06,1.22-5.87.98-2.12,2.68-4.38,5.61-4.91h-4.17c-2.93.53-4.63,2.79-5.61,4.91-.83,1.82-1.22,3.84-1.22,5.87v11.91c0,1.91.34,3.81,1.08,5.54,3.79,8.92,11.77,8.1,13.54,7.8-3.09-.49-7.03-2.29-9.37-7.8h0Z"/>
    </g>
    <g class="cls-28">
      <polygon class="cls-10" points="1196.83 581.53 1196.83 570.85 1190.82 570.85 1192.03 581.53 1196.83 581.53"/>
    </g>
    <g class="cls-28">
      <path class="cls-10" d="m1172.08,603.84v-4c.02,2.42.84,23.3,21.98,25.81,1.66.2,2.88-1.5,2.14-3l-2.48-5.02c3.22.3,4.72-.13,4.72-.13l5.26,8.4h.55l2.11,4.23h-7.98c-26.83,0-26.29-26.29-26.29-26.29Z"/>
    </g>
  </g>
  <g>
    <polygon class="cls-16" points="1251.71 659.02 1228.72 659.02 1233.41 641.19 1247.02 641.19 1251.71 659.02"/>
    <path class="cls-10" d="m1251.71,660.34h-22.99c-.41,0-.8-.19-1.04-.51-.25-.32-.34-.75-.23-1.14l4.69-17.83c.15-.58.67-.98,1.28-.98h13.61c.6,0,1.12.4,1.28.98l4.69,17.83c.1.39.02.82-.23,1.14-.25.32-.64.51-1.04.51h0Zm-21.28-2.64h19.57l-4-15.2h-11.58l-4,15.2h0Z"/>
  </g>
  <g class="cls-30">
    <polygon class="cls-17" points="1234.42 642.51 1230.43 657.71 1232.31 657.71 1236.31 642.51 1234.42 642.51"/>
  </g>
  <g>
    <path class="cls-16" d="m1229.27,659.02h21.88c4.66,0,8.45,3.79,8.45,8.45h-38.77c0-4.66,3.79-8.45,8.45-8.45h0Z"/>
    <path class="cls-10" d="m1259.6,668.79h-38.77c-.73,0-1.32-.59-1.32-1.32v-2.56c0-3.97,3.23-7.2,7.2-7.2h26.99c3.97,0,7.2,3.23,7.2,7.2v2.56c0,.73-.59,1.32-1.32,1.32h0Zm-37.45-2.64h36.13v-1.24c0-2.52-2.05-4.57-4.57-4.57h-26.99c-2.52,0-4.57,2.05-4.57,4.57v1.24Z"/>
  </g>
  <g class="cls-30">
    <path class="cls-17" d="m1224.03,665.66c0-2.52,2.05-4.57,4.57-4.57h26.99c.24,0,.48.02.72.06-.74-.51-1.63-.82-2.6-.82h-26.99c-2.52,0-4.57,2.05-4.57,4.57v1.24h1.88v-.49h0Z"/>
  </g>
  <g>
    <path class="cls-12" d="m1223.44,667.47h33.55c11.4,0,20.65,9.25,20.65,20.65h-74.84c0-11.4,9.25-20.65,20.65-20.65h0Z"/>
    <path class="cls-10" d="m1277.63,689.43h-74.84c-.73,0-1.32-.59-1.32-1.32v-7.62c0-7.91,6.43-14.34,14.34-14.34h48.8c7.91,0,14.34,6.43,14.34,14.34v7.62c0,.73-.59,1.32-1.32,1.32h0Zm-73.52-2.64h72.21v-6.31c0-6.45-5.25-11.71-11.71-11.71h-48.8c-6.45,0-11.71,5.25-11.71,11.71v6.31h0Z"/>
  </g>
  <g class="cls-30">
    <path class="cls-17" d="m1206.37,681.62c0-6.45,5.25-11.71,11.71-11.71h48.8c1.42,0,2.78.26,4.05.72-1.82-1.17-3.98-1.85-6.3-1.85h-48.8c-6.45,0-11.71,5.25-11.71,11.71v6.31h2.26v-5.18h0Z"/>
  </g>
  <g>
    <path class="cls-16" d="m1240.45,549.3h-.48l-43.25.06v51.08c0,9.13,2.19,18.17,6.63,26.15,5.88,10.54,16.76,21.46,36.61,21.64h0c.08,0,.16,0,.24,0s.16,0,.24,0h0c19.85-.18,30.73-11.1,36.61-21.65,4.45-7.98,6.63-17.01,6.63-26.15v-51.08l-43.25-.06Z"/>
    <path class="cls-10" d="m1240.45,649.55h-.32c-.11,0-.22,0-.32,0-20.92-.24-32-12.26-37.6-22.31-4.45-7.98-6.8-17.24-6.8-26.79v-51.08c0-.73.59-1.32,1.32-1.32l43.73-.06h0l43.25.06c.73,0,1.32.59,1.32,1.32v51.08c0,9.55-2.35,18.81-6.8,26.79-5.61,10.05-16.68,22.07-37.61,22.31-.05,0-.11,0-.16,0h0Zm-.24-2.64h.12s.08,0,.11,0c15.86-.14,27.79-7.19,35.47-20.96,4.23-7.59,6.47-16.4,6.47-25.5v-49.77l-41.94-.06h-.48l-41.93.06v49.76c0,9.1,2.24,17.92,6.47,25.5,7.68,13.77,19.62,20.82,35.47,20.96.04,0,.08,0,.11,0h.11,0Z"/>
  </g>
  <g class="cls-30">
    <path class="cls-17" d="m1206.77,626.32c-4.23-7.59-6.47-16.4-6.47-25.5v-49.76l41.93-.06,40.16.06v-.37l-42.41-.06-41.93.06v49.76c0,9.1,2.24,17.92,6.47,25.5,6.6,11.83,16.34,18.7,29.01,20.48-11.57-2.26-20.55-8.99-26.75-20.11h0Z"/>
  </g>
  <g class="cls-28">
    <ellipse class="cls-17" cx="1210.89" cy="580.87" rx="8.83" ry="5.61" transform="translate(531.34 1739.26) rotate(-85.23)"/>
  </g>
  <g class="cls-28">
    <path class="cls-10" d="m1230.8,645.96c.18-.02.35-.05.52-.07,2.4.4,4.91.62,7.53.64.04,0,.08,0,.11,0h.22s.08,0,.11,0c15.86-.14,27.79-7.19,35.47-20.96,4.23-7.59,6.47-16.4,6.47-25.5v-49.39l-41.28-.06-41.93.06v16.49l.29.21,59.52,2.36c10.35.41,18.34,9.28,17.63,19.62-1.45,21.13-10.5,52.43-44.68,56.6Z"/>
  </g>
  <g>
    <rect class="cls-16" x="1188.85" y="548.75" width="102.72" height="14.6" rx="7.3" ry="7.3"/>
    <path class="cls-10" d="m1284.27,564.67h-88.12c-4.75,0-8.62-3.87-8.62-8.62s3.87-8.62,8.62-8.62h88.12c4.75,0,8.62,3.87,8.62,8.62s-3.87,8.62-8.62,8.62h0Zm-88.12-14.6c-3.3,0-5.98,2.68-5.98,5.98s2.68,5.98,5.98,5.98h88.12c3.3,0,5.98-2.68,5.98-5.98s-2.68-5.98-5.98-5.98c0,0-88.12,0-88.12,0Z"/>
  </g>
  <g class="cls-30">
    <path class="cls-17" d="m1192.05,557.18c0-3.3,2.68-5.98,5.98-5.98h88.12c.73,0,1.43.14,2.07.38-1.05-.93-2.44-1.51-3.96-1.51h-88.12c-3.3,0-5.98,2.68-5.98,5.98,0,2.57,1.63,4.76,3.91,5.6-1.24-1.1-2.02-2.69-2.02-4.47Z"/>
  </g>
  <g class="cls-28">
    <path class="cls-10" d="m1230.96,650.37s4.44,1.02,9.01.98c2.98-.03,3.7,4.16.89,5.16-2.49.88-6.15,1.47-11.55,1.38l-1.22,1.53h24.12l-2.93-11.98s-11.85,2.96-17.89.14l-.43,2.78h0Z"/>
  </g>
  <g class="cls-28">
    <path class="cls-10" d="m1245.66,659.42s.6,7.18-24.74,6.26v1.37h39.6l-1.13-3.92s-1.04-5.55-13.72-3.71h0Z"/>
  </g>
  <g class="cls-28">
    <path class="cls-10" d="m1245.65,668.12s3.05,17.71-42.74,17.71l.31,1.99h74.95v-9.46s-4.27-14.96-32.51-10.23h0Z"/>
  </g>
  <g>
    <g>
      <path class="cls-7" d="m1250.47,617.55c-.71,0-1.41-.23-2-.66l-7.57-5.5c-.2-.14-.44-.22-.68-.22s-.48.08-.68.22l-7.57,5.5c-.6.44-1.29.66-2,.66-1.1,0-2.14-.54-2.79-1.44-.64-.88-.81-1.99-.47-3.05l2.89-8.89c.16-.48-.01-1-.42-1.3l-7.57-5.5c-1.22-.89-1.71-2.39-1.24-3.83s1.74-2.37,3.26-2.37h9.35c.51,0,.95-.32,1.11-.8l2.89-8.89c.47-1.44,1.74-2.37,3.26-2.37s2.79.93,3.26,2.37l2.89,8.89c.16.48.6.8,1.11.8h9.35c1.51,0,2.79.93,3.26,2.37.47,1.44-.02,2.94-1.24,3.83l-7.57,5.5c-.41.3-.58.82-.42,1.3l2.89,8.89c.34,1.06.17,2.17-.47,3.05-.65.9-1.7,1.44-2.8,1.44h-.01Z"/>
      <path class="cls-10" d="m1240.21,580.24c.92,0,1.84.53,2.18,1.59l2.89,8.89c.31.95,1.19,1.59,2.18,1.59h9.35c2.22,0,3.14,2.84,1.35,4.15l-7.57,5.5c-.8.58-1.14,1.62-.83,2.56l2.89,8.89c.52,1.61-.75,3.01-2.19,3.01-.45,0-.91-.14-1.34-.45l-7.57-5.5c-.4-.29-.88-.44-1.35-.44s-.95.15-1.35.44l-7.57,5.5c-.43.31-.89.45-1.34.45-1.43,0-2.71-1.4-2.19-3.01l2.89-8.89c.31-.95-.03-1.98-.83-2.56l-7.57-5.5c-1.8-1.31-.88-4.15,1.35-4.15h9.35c.99,0,1.87-.64,2.18-1.59l2.89-8.89c.34-1.06,1.26-1.59,2.18-1.59m0-2.26c-2.01,0-3.71,1.23-4.33,3.15l-2.89,8.89s-.02.02-.03.02h-9.35c-2.01,0-3.71,1.23-4.33,3.15s.03,3.91,1.65,5.09l7.57,5.5s.02.02.01.04l-2.89,8.89c-.46,1.41-.23,2.89.63,4.07.87,1.19,2.25,1.9,3.71,1.9.95,0,1.88-.3,2.67-.88l7.57-5.5s0,0,.02,0,.02,0,.02,0l7.57,5.5c.79.57,1.71.88,2.67.88,1.46,0,2.84-.71,3.71-1.9.86-1.18,1.09-2.66.63-4.07l-2.89-8.89s0-.03.01-.04l7.57-5.5c1.63-1.18,2.27-3.18,1.65-5.09-.62-1.91-2.32-3.15-4.33-3.15h-9.35s-.03,0-.03-.02l-2.89-8.89c-.62-1.91-2.32-3.15-4.33-3.15h0Z"/>
    </g>
    <g class="cls-30">
      <path class="cls-17" d="m1245.96,591.9c.31.95,1.19,1.59,2.18,1.59h9.35c.64,0,1.16.24,1.55.6-.23-.96-1.04-1.78-2.23-1.78h-9.35c-.6,0-1.16-.24-1.57-.63l.07.22h0Z"/>
    </g>
    <g class="cls-30">
      <path class="cls-17" d="m1228.45,614.59l2.89-8.89c.28-.86.02-1.79-.63-2.39.09.39.08.81-.05,1.21l-2.89,8.89c-.31.95.01,1.82.62,2.38-.08-.37-.07-.78.06-1.2Z"/>
    </g>
    <g class="cls-30">
      <path class="cls-17" d="m1224.29,593.48h9.35c.99,0,1.87-.64,2.18-1.59l2.89-8.89c.55-1.71,2.62-2.03,3.75-.98l-.06-.2c-.69-2.11-3.68-2.11-4.36,0l-2.89,8.89c-.31.95-1.19,1.59-2.18,1.59h-9.35c-2.12,0-3.06,2.6-1.56,3.97-.28-1.31.64-2.79,2.24-2.79Z"/>
    </g>
    <g class="cls-28">
      <polygon class="cls-10" points="1240.37 581.34 1240.37 599.58 1245.79 591.77 1242.02 580.96 1240.37 581.34"/>
    </g>
    <g class="cls-28">
      <polygon class="cls-10" points="1240.37 599.58 1229 616.17 1230.29 617.29 1240.49 610.49 1240.37 599.58"/>
    </g>
    <g class="cls-28">
      <polygon class="cls-10" points="1221.43 595.82 1240.37 599.58 1230.98 603.26 1221.43 595.82"/>
    </g>
    <g class="cls-28">
      <polygon class="cls-10" points="1240.37 599.58 1253.06 616.53 1252.68 612.01 1249.31 603.51 1240.37 599.58"/>
    </g>
    <g class="cls-26">
      <polygon class="cls-10" points="1240.37 599.58 1258.25 595.65 1249.31 603.51 1240.37 599.58"/>
    </g>
  </g>
  <g class="cls-1">
    <g>
      <g class="cls-31">
        <rect class="cls-17" x="1196.97" y="549.76" width="38.42" height="13.03" transform="translate(-1.82 1108.55) rotate(-48.97)"/>
      </g>
      <g class="cls-31">
        <rect class="cls-17" x="1220.37" y="551.75" width="38.42" height="5.77" transform="translate(7.46 1125.64) rotate(-48.97)"/>
      </g>
    </g>
  </g>
  <g class="cls-28">
    <path class="cls-10" d="m1288.62,551.95c.11.11.22.24.32.36-.1-.12-.21-.24-.32-.36Z"/>
  </g>
  <g class="cls-28">
    <path class="cls-10" d="m1289.35,552.9c.07.11.14.23.21.34-.06-.12-.14-.23-.21-.34Z"/>
  </g>
  <g class="cls-28">
    <path class="cls-10" d="m1289.01,552.4c.09.11.18.23.26.36-.08-.12-.17-.24-.26-.36Z"/>
  </g>
  <g class="cls-28">
    <path class="cls-10" d="m1290.19,555.23c0,.07.03.14.03.22,0-.07-.02-.14-.03-.22Z"/>
  </g>
  <g class="cls-28">
    <path class="cls-10" d="m1289.64,553.43c.05.11.11.22.16.33-.05-.11-.1-.22-.16-.33Z"/>
  </g>
  <g class="cls-28">
    <path class="cls-10" d="m1290.07,554.59c.02.09.05.18.07.27-.02-.09-.04-.18-.07-.27Z"/>
  </g>
  <g class="cls-28">
    <path class="cls-10" d="m1289.88,554c.04.1.08.2.11.3-.03-.1-.07-.2-.11-.3Z"/>
  </g>
  <g class="cls-28">
    <path class="cls-10" d="m1282.39,561.66c3.3,0,5.98-2.68,5.98-5.98,0-2.56-1.62-4.74-3.88-5.59-.07,0-.14-.01-.22-.01h-12.59c-1.48,2.83-10.28,10.78-62.05,11.58h72.76Z"/>
  </g>
  <g class="cls-28">
    <path class="cls-10" d="m1194.17,561.69c.9,0,1.78.01,2.65.02-.88,0-1.76-.01-2.65-.02Z"/>
  </g>
  <g class="cls-28">
    <path class="cls-10" d="m1204.55,561.71c-.24,0-.47,0-.71,0,.24,0,.48,0,.71,0Z"/>
  </g>
  <g class="cls-28">
    <path class="cls-10" d="m1197.63,561.72c.66,0,1.31,0,1.96,0-.65,0-1.3,0-1.96,0Z"/>
  </g>
  <g class="cls-28">
    <path class="cls-10" d="m1284.49,550.08c1.2.04,2.31.44,3.23,1.09-.92-.65-2.03-1.05-3.23-1.09Z"/>
  </g>
  <g class="cls-28">
    <path class="cls-10" d="m1287.73,551.18c.15.11.29.22.43.34-.14-.12-.28-.23-.43-.34Z"/>
  </g>
  <g class="cls-28">
    <path class="cls-10" d="m1288.56,551.89c-.12-.12-.24-.24-.38-.35.13.11.26.23.38.35Z"/>
  </g>
  <g id="_01" data-name="01">
    <path class="cls-23" d="m192.37,166.67v-.03h0c-2.76-23.49-22.73-41.72-46.97-41.72s-44.21,18.23-46.97,41.72h0v.03c-.21,1.82-.33,3.67-.33,5.55s.11,3.73.33,5.55v74.56c0,14.74,11.95,26.69,26.69,26.69h40.56c14.74,0,26.69-11.95,26.69-26.69v-74.56c.21-1.82.33-3.67.33-5.54s-.11-3.73-.33-5.54Z"/>
    <path class="cls-20" d="m144.94,225.14c-26,0-47.08,21.08-47.08,47.08v9.71c0,11.77,9.54,21.31,21.31,21.31h51.55c11.77,0,21.31-9.54,21.31-21.31v-9.71c0-26-21.08-47.08-47.08-47.08Z"/>
    <g class="cls-29">
      <path class="cls-2" d="m98.42,266.05h92.95c-.17-1.49-.42-2.96-.73-4.41h-91.49c-.31,1.44-.55,2.91-.73,4.41Z"/>
      <path class="cls-2" d="m98.08,271.55v1.1h93.61v-1.1c0-1.11-.05-2.21-.13-3.3h-93.35c-.08,1.09-.13,2.19-.13,3.3Z"/>
      <path class="cls-2" d="m101.99,252.83h85.8c-.66-1.51-1.4-2.98-2.21-4.41h-81.37c-.81,1.42-1.55,2.89-2.21,4.41Z"/>
      <path class="cls-2" d="m98.61,285.87h92.57c.32-1.42.5-2.89.51-4.41h-93.6c.02,1.51.2,2.99.51,4.41Z"/>
      <path class="cls-2" d="m107.91,299.09h73.96c1.89-1.2,3.57-2.69,4.99-4.41h-83.94c1.42,1.72,3.11,3.2,4.99,4.41Z"/>
      <rect class="cls-2" x="98.08" y="274.86" width="93.61" height="4.4"/>
      <path class="cls-2" d="m101.33,292.48h87.11c.86-1.37,1.57-2.85,2.11-4.41h-91.33c.53,1.56,1.24,3.04,2.11,4.41Z"/>
      <path class="cls-2" d="m105.54,246.22h78.7c-.99-1.53-2.05-3.01-3.2-4.41h-72.3c-1.15,1.4-2.22,2.88-3.2,4.41Z"/>
      <path class="cls-2" d="m99.68,259.44h90.43c-.4-1.5-.87-2.97-1.42-4.41h-87.6c-.54,1.44-1.02,2.91-1.42,4.41Z"/>
      <path class="cls-2" d="m112.53,301.29c2.11.71,4.37,1.1,6.72,1.1h51.29c2.35,0,4.61-.39,6.72-1.1h-64.73Z"/>
      <path class="cls-2" d="m118.35,233.01h53.09c-2.48-1.71-5.14-3.19-7.93-4.41h-37.22c-2.8,1.21-5.45,2.69-7.93,4.41Z"/>
      <path class="cls-2" d="m110.69,239.61h68.4c-1.47-1.57-3.04-3.05-4.72-4.41h-58.97c-1.67,1.36-3.25,2.83-4.72,4.41Z"/>
      <path class="cls-13" d="m126.28,228.6h37.22c-2.02-.88-4.12-1.61-6.28-2.2h-24.65c-2.16.59-4.26,1.32-6.28,2.2Z"/>
      <path class="cls-13" d="m115.41,235.21h58.97c-.95-.77-1.93-1.51-2.94-2.2h-53.09c-1.01.7-1.99,1.43-2.94,2.2Z"/>
      <path class="cls-13" d="m108.74,241.82h72.3c-.62-.76-1.28-1.49-1.95-2.2h-68.4c-.67.72-1.32,1.45-1.95,2.2Z"/>
      <path class="cls-13" d="m104.2,248.42h81.37c-.43-.75-.87-1.48-1.34-2.2h-78.7c-.47.72-.91,1.45-1.34,2.2Z"/>
      <path class="cls-13" d="m101.09,255.03h87.6c-.28-.74-.58-1.48-.9-2.2h-85.8c-.32.73-.62,1.46-.9,2.2Z"/>
      <path class="cls-13" d="m99.15,261.64h91.49c-.16-.74-.34-1.48-.53-2.2h-90.43c-.19.73-.37,1.46-.53,2.2Z"/>
      <path class="cls-13" d="m98.21,268.25h93.35c-.05-.74-.12-1.47-.2-2.2h-92.95c-.09.73-.15,1.46-.2,2.2Z"/>
      <rect class="cls-13" x="98.08" y="272.65" width="93.61" height="2.2"/>
      <path class="cls-13" d="m98.08,281.21c0,.09,0,.17,0,.26h93.6c0-.09,0-.17,0-.26v-1.95h-93.61v1.95Z"/>
      <path class="cls-13" d="m99.23,288.07h91.33c.25-.72.45-1.45.62-2.2h-92.57c.17.75.38,1.48.62,2.2Z"/>
      <path class="cls-13" d="m102.92,294.68h83.94c.58-.7,1.1-1.43,1.59-2.2h-87.11c.48.77,1.01,1.51,1.59,2.2Z"/>
      <path class="cls-13" d="m112.53,301.29h64.73c1.64-.55,3.18-1.29,4.61-2.2h-73.96c1.43.91,2.98,1.65,4.61,2.2Z"/>
    </g>
    <circle class="cls-22" cx="145.39" cy="185.8" r="34.72" transform="translate(-12.79 10.76) rotate(-4.06)"/>
    <path class="cls-17" d="m136.17,197.83c0,5.09,4.13,9.22,9.23,9.22s9.22-4.13,9.22-9.22h-18.45Z"/>
    <path class="cls-21" d="m145.26,186.69c-2.27,0-4.11,1.84-4.11,4.11h8.22c0-2.27-1.84-4.11-4.11-4.11Z"/>
    <path class="cls-22" d="m178.93,181.6v11.43c3.16,0,5.71-2.56,5.71-5.71s-2.56-5.71-5.71-5.71Z"/>
    <path class="cls-22" d="m105.81,187.31c0,3.16,2.56,5.71,5.71,5.71v-11.43c-3.16,0-5.71,2.56-5.71,5.71Z"/>
    <polygon class="cls-23" points="188.19 172.21 128.12 172.21 125.6 163.24 122 172.21 101.42 172.21 109.61 148.9 180.11 148.9 188.19 172.21"/>
    <circle class="cls-8" cx="162.39" cy="182.76" r="1.94"/>
    <circle class="cls-8" cx="127.49" cy="182.76" r="1.94"/>
    <path class="cls-22" d="m144.89,213.47c-3.2,0-5.79,2.59-5.79,5.79v11.32c0,3.2,2.59,5.79,5.79,5.79s5.79-2.59,5.79-5.79v-11.32c0-3.2-2.59-5.79-5.79-5.79Z"/>
  </g>
  <g id="_06" data-name="06">
    <circle class="cls-9" cx="1064.82" cy="114.71" r="63.44" transform="translate(800.93 1152.68) rotate(-81.88)"/>
    <path class="cls-11" d="m1032.28,70.02c-.73,0-1.32.59-1.32,1.32s.59,1.32,1.32,1.32,1.32-.59,1.32-1.32-.59-1.32-1.32-1.32Z"/>
    <path class="cls-11" d="m1025.81,119.52c-.73,0-1.32.59-1.32,1.32s.59,1.32,1.32,1.32,1.32-.59,1.32-1.32-.59-1.32-1.32-1.32Z"/>
    <path class="cls-11" d="m1010.25,132.09c-.73,0-1.32.59-1.32,1.32s.59,1.32,1.32,1.32,1.32-.59,1.32-1.32-.59-1.32-1.32-1.32Z"/>
    <path class="cls-11" d="m1120.15,131.99c-.73,0-1.32.59-1.32,1.32s.59,1.32,1.32,1.32,1.32-.59,1.32-1.32-.59-1.32-1.32-1.32Z"/>
    <path class="cls-11" d="m1103.75,75.51c-.73,0-1.32.59-1.32,1.32s.59,1.32,1.32,1.32,1.32-.59,1.32-1.32-.59-1.32-1.32-1.32Z"/>
    <path class="cls-11" d="m1089.65,86.43c-.73,0-1.32.59-1.32,1.32s.59,1.32,1.32,1.32,1.32-.59,1.32-1.32-.59-1.32-1.32-1.32Z"/>
    <path class="cls-11" d="m1119,109.18c-.73,0-1.32.59-1.32,1.32s.59,1.32,1.32,1.32,1.32-.59,1.32-1.32-.59-1.32-1.32-1.32Z"/>
    <path class="cls-11" d="m1115.38,89.06c-.73,0-1.32.59-1.32,1.32s.59,1.32,1.32,1.32,1.32-.59,1.32-1.32-.59-1.32-1.32-1.32Z"/>
    <path class="cls-11" d="m1068,69.93c-.73,0-1.32.59-1.32,1.32s.59,1.32,1.32,1.32,1.32-.59,1.32-1.32-.59-1.32-1.32-1.32Z"/>
    <path class="cls-11" d="m1015.19,86.43c-.73,0-1.32.59-1.32,1.32s.59,1.32,1.32,1.32,1.32-.59,1.32-1.32-.59-1.32-1.32-1.32Z"/>
    <path class="cls-11" d="m1034.05,85.11c-.73,0-1.32.59-1.32,1.32s.59,1.32,1.32,1.32,1.32-.59,1.32-1.32-.59-1.32-1.32-1.32Z"/>
    <path class="cls-11" d="m1014.34,107.67c-.73,0-1.32.59-1.32,1.32s.59,1.32,1.32,1.32,1.32-.59,1.32-1.32-.59-1.32-1.32-1.32Z"/>
    <path class="cls-11" d="m1049.37,58.47c-.73,0-1.32.59-1.32,1.32s.59,1.32,1.32,1.32,1.32-.59,1.32-1.32-.59-1.32-1.32-1.32Z"/>
    <path class="cls-11" d="m1084.27,60.24c-.73,0-1.32.59-1.32,1.32s.59,1.32,1.32,1.32,1.32-.59,1.32-1.32-.59-1.32-1.32-1.32Z"/>
    <path class="cls-11" d="m1092.28,164.57c-.73,0-1.32.59-1.32,1.32s.59,1.32,1.32,1.32,1.32-.59,1.32-1.32-.59-1.32-1.32-1.32Z"/>
    <path class="cls-11" d="m1052.58,171.78c-.73,0-1.32.59-1.32,1.32s.59,1.32,1.32,1.32,1.32-.59,1.32-1.32-.59-1.32-1.32-1.32Z"/>
    <path class="cls-11" d="m1024.32,153.17c-.73,0-1.32.59-1.32,1.32s.59,1.32,1.32,1.32,1.32-.59,1.32-1.32-.59-1.32-1.32-1.32Z"/>
    <path class="cls-11" d="m1108.92,147.07c-.73,0-1.32.59-1.32,1.32s.59,1.32,1.32,1.32,1.32-.59,1.32-1.32-.59-1.32-1.32-1.32Z"/>
    <path class="cls-11" d="m1064.38,176.65c-27.67,0-50.1,22.43-50.1,50.1v10.33c0,12.52,10.15,22.67,22.67,22.67h54.85c12.52,0,22.67-10.15,22.67-22.67v-10.33c0-27.67-22.43-50.1-50.1-50.1Z"/>
    <circle class="cls-22" cx="1064.62" cy="135.13" r="36.94"/>
    <path class="cls-17" d="m1054.8,147.94c0,5.42,4.39,9.82,9.82,9.82s9.82-4.39,9.82-9.82h-19.63Z"/>
    <path class="cls-22" d="m1064.08,164.58c-3.4,0-6.16,2.76-6.16,6.16v12.05c0,3.4,2.76,6.16,6.16,6.16s6.16-2.76,6.16-6.16v-12.05c0-3.4-2.76-6.16-6.16-6.16Z"/>
    <path class="cls-22" d="m1100.91,130.31v12.16c3.36,0,6.08-2.72,6.08-6.08s-2.72-6.08-6.08-6.08Z"/>
    <path class="cls-22" d="m1022.43,136.39c0,3.36,2.72,6.08,6.08,6.08v-12.16c-3.36,0-6.08,2.72-6.08,6.08Z"/>
    <path class="cls-21" d="m1064.79,136.91c-2.42,0-4.37,1.96-4.37,4.37h8.75c0-2.41-1.96-4.37-4.37-4.37Z"/>
    <path class="cls-9" d="m1101.22,117.87c-.65-19.91-16.98-35.85-37.04-35.85s-36.39,15.94-37.04,35.85h74.08Z"/>
    <path class="cls-5" d="m1028.33,142.04c3.24,17.1,18.25,30.03,36.29,30.03s33.05-12.93,36.29-30.03h-72.58Zm36.29,17.84c-7.77,0-14.07-6.3-14.07-14.07h28.15c0,7.77-6.3,14.07-14.07,14.07Z"/>
    <path class="cls-11" d="m1060.38,87.74c-.73,0-1.32.59-1.32,1.32s.59,1.32,1.32,1.32,1.32-.59,1.32-1.32-.59-1.32-1.32-1.32Z"/>
    <path class="cls-11" d="m1047.93,101.77c-.73,0-1.32.59-1.32,1.32s.59,1.32,1.32,1.32,1.32-.59,1.32-1.32-.59-1.32-1.32-1.32Z"/>
    <path class="cls-11" d="m1081.33,105.18c-.73,0-1.32.59-1.32,1.32s.59,1.32,1.32,1.32,1.32-.59,1.32-1.32-.59-1.32-1.32-1.32Z"/>
    <path class="cls-11" d="m1103.17,114.85c-.73,0-1.32.59-1.32,1.32s.59,1.32,1.32,1.32,1.32-.59,1.32-1.32-.59-1.32-1.32-1.32Z"/>
    <path class="cls-8" d="m1080.84,120.51c-5.42,0-9.81,4.39-9.81,9.8s4.39,9.8,9.81,9.8,9.8-4.39,9.8-9.8-4.39-9.8-9.8-9.8Z"/>
    <circle class="cls-8" cx="1047.92" cy="130.31" r="9.8"/>
    <rect class="cls-8" x="1056.69" y="129.55" width="15.52" height="1.53"/>
  </g>
  <g id="_07" data-name="07">
    <path class="cls-9" d="m309.79,377.99v-.03h0c-3.06-26.04-25.2-46.24-52.06-46.24s-49,20.2-52.06,46.24h0v.03c-.24,2.02-.36,4.07-.36,6.15s.13,4.13.36,6.15v49.48c0,26.95,21.85,48.8,48.8,48.8h6.52c26.95,0,48.8-21.85,48.8-48.8v-49.49c.24-2.02.36-4.07.36-6.15s-.12-4.13-.36-6.15Z"/>
    <path class="cls-23" d="m257.48,431.26c-28.82,0-52.18,23.36-52.18,52.18v10.76c0,13.04,10.57,23.62,23.62,23.62h57.14c13.04,0,23.62-10.57,23.62-23.62v-10.76c0-28.82-23.36-52.18-52.18-52.18Z"/>
    <circle class="cls-6" cx="257.73" cy="388.02" r="38.48" transform="translate(-28.17 20.27) rotate(-4.27)"/>
    <path class="cls-17" d="m247.5,401.35c0,5.65,4.58,10.22,10.22,10.22s10.22-4.58,10.22-10.22h-20.45Z"/>
    <path class="cls-6" d="m257.17,418.69c-3.54,0-6.41,2.87-6.41,6.41v12.55c0,3.54,2.87,6.41,6.41,6.41s6.41-2.87,6.41-6.41v-12.55c0-3.54-2.87-6.41-6.41-6.41Z"/>
    <path class="cls-9" d="m261.08,341.55c-3.89-6.73-17.45-6.18-30.29,1.23-12.84,7.41-20.1,18.88-16.21,25.62,3.89,6.73,17.45,6.18,30.29-1.23,12.84-7.41,20.1-18.88,16.21-25.62Z"/>
    <path class="cls-9" d="m284.62,342.78c-12.84-7.41-26.4-7.97-30.29-1.23-3.89,6.73,3.37,18.2,16.21,25.62,12.84,7.41,26.4,7.97,30.29,1.23,3.89-6.73-3.37-18.2-16.21-25.62Z"/>
    <path class="cls-6" d="m294.83,383v12.67c3.5,0,6.33-2.84,6.33-6.33s-2.84-6.33-6.33-6.33Z"/>
    <path class="cls-6" d="m213.78,389.33c0,3.5,2.84,6.33,6.33,6.33v-12.67c-3.5,0-6.33,2.84-6.33,6.33Z"/>
    <path class="cls-14" d="m257.9,389.87c-2.52,0-4.55,2.04-4.55,4.55h9.11c0-2.52-2.04-4.55-4.55-4.55Z"/>
    <circle class="cls-8" cx="276.89" cy="385.52" r="2.15"/>
    <circle class="cls-8" cx="238.21" cy="385.52" r="2.15"/>
    <path class="cls-23" d="m258.99,370.96c-.79-.45-1.79-.18-2.25.6-.45.79-.18,1.79.6,2.25s1.79.18,2.25-.6c.45-.79.18-1.79-.6-2.25Z"/>
    <path class="cls-23" d="m297.39,388.94c-1.59,0-2.87,1.28-2.87,2.87v13.71c0,1.59,1.28,2.87,2.87,2.87s2.87-1.28,2.87-2.87v-13.71c0-1.59-1.28-2.87-2.87-2.87Z"/>
    <path class="cls-23" d="m218.2,388.94c-1.59,0-2.87,1.28-2.87,2.87v13.71c0,1.59,1.28,2.87,2.87,2.87s2.87-1.28,2.87-2.87v-13.71c0-1.59-1.28-2.87-2.87-2.87Z"/>
    <path class="cls-15" d="m285.52,439.43c-10.07,11.04-64.28,34.5-79.07,33.05-1.6,6.22-1.6,11.75-1.16,19.85,16.75,10.93,95.62-20.16,97.01-35.62-2.29-3.8-7.2-11.16-16.78-17.29Z"/>
    <path class="cls-6" d="m299.4,452.31c-8.58,9.73-65.06,38.66-94.55,34.38v1.84c2.14.31,5.17.44,7.48.44,16.85,0,37.36-7.57,48.92-12.49,19.22-8.19,35-17.94,39.14-22.64l-1-1.53Z"/>
    <path class="cls-6" d="m292.64,444.94c-8.34,9.47-57.36,37.48-87.18,33.15v1.84c2.18.32,4.01.45,6.37.45,30.57,0,74.53-24.97,82.42-33.92l-1.61-1.53Z"/>
  </g>
  <g id="_09" data-name="09">
    <path class="cls-23" d="m1211.34,394.83c-24.94,0-45.15,20.22-45.15,45.15v9.31c0,11.29,9.15,20.43,20.43,20.43h49.44c11.29,0,20.43-9.15,20.43-20.43v-9.31c0-24.94-20.22-45.15-45.15-45.15Z"/>
    <circle class="cls-20" cx="1211.56" cy="357.41" r="33.3"/>
    <path class="cls-17" d="m1202.71,368.95c0,4.89,3.96,8.85,8.85,8.85s8.85-3.96,8.85-8.85h-17.69Z"/>
    <path class="cls-20" d="m1211.07,383.95c-3.06,0-5.55,2.48-5.55,5.55v10.86c0,3.06,2.48,5.55,5.55,5.55s5.55-2.48,5.55-5.55v-10.86c0-3.07-2.48-5.55-5.55-5.55Z"/>
    <path class="cls-20" d="m1243.66,353.07v10.96c3.03,0,5.48-2.45,5.48-5.48s-2.45-5.48-5.48-5.48Z"/>
    <path class="cls-20" d="m1173.53,358.55c0,3.03,2.45,5.48,5.48,5.48v-10.96c-3.03,0-5.48,2.45-5.48,5.48Z"/>
    <path class="cls-18" d="m1211.71,359.01c-2.18,0-3.94,1.76-3.94,3.94h7.88c0-2.18-1.76-3.94-3.94-3.94Z"/>
    <path class="cls-8" d="m1230.72,356.2c-.05-1.43-1.22-2.57-2.66-2.57s-2.61,1.14-2.66,2.57h5.31Z"/>
    <path class="cls-8" d="m1197.78,356.2c-.05-1.43-1.22-2.57-2.66-2.57s-2.61,1.14-2.66,2.57h5.31Z"/>
    <path class="cls-8" d="m1241.96,330.29c-.52-15.18-16.79-32.14-51.46-25.5,0,7.95,3.27,12.78,6.98,16.8-8.05-.55-20.84-25.95-20.84-25.95,0,0-14.69,29.93,3.33,46.75,20.46,13.05,47.56,3.55,58.61-3.72,2.43,1.08,3.95,23.07,4.78,23.37,1.04.38,4.25-27.09-1.4-31.76Z"/>
  </g>
  <text class="cls-27" transform="translate(476.77 605.7)"><tspan x="0" y="0">INSURANCE AGENTS EDITION</tspan></text>
</svg>